<?xml version="1.0" encoding="utf-8"?>
<!-- Generator: Adobe Illustrator 21.1.0, SVG Export Plug-In . SVG Version: 6.00 Build 0)  -->
<svg version="1.1" id="Layer_1" xmlns="http://www.w3.org/2000/svg" xmlns:xlink="http://www.w3.org/1999/xlink" x="0px" y="0px"
	 viewBox="0 0 1015.9 964.6" style="enable-background:new 0 0 1015.9 964.6;" xml:space="preserve">
<style type="text/css">
	.st0{fill:#D5CE86;}
	.st1{fill:#231F20;}
	.st2{fill:#070705;}
	.st3{fill:#252021;}
	.st4{fill:#FDFCF8;}
	.st5{fill:#E3DDA4;}
	.st6{fill:#FFFFFF;}
	.st7{fill:#919497;}
	.st8{fill:#9ED085;}
	.st9{fill:#68B344;}
	.st10{fill:#69B543;}
	.st11{fill:#262222;}
	.st12{fill:#F1F6EF;}
	.st13{fill:#68B343;}
	.st14{fill:#D5509A;}
	.st15{fill:#090B07;}
</style>
<g id="D77Z38_1_">
	<g>
		<path class="st0" d="M166.8,899.2c3.2,5.8,8.6,10.1,12.3,16.3c-44.4,0-88.4,0-132.9,0c2.3-4.6,6-8.2,9.1-12.2
			c6.1-7.9,12.3-15.7,18.6-23.5c1.6-2,2.1-4,2.1-6.4c0-27.5,0-55,0-82.5c0-2.4-0.5-4.5-2-6.5c-7.1-9.6-13.6-19.8-21.5-28.8
			C48.4,751,48,746.4,48,741c0-124,0-248,0.1-372c0-8.9-1.2-7.8,7.6-7.8c66,0,132,0,198,0c6.6,0,6.6,0,6.5-6.4
			c0-8.5-0.4-17-0.8-25.4c-0.2-4-3-4.9-5.4-6.4c-11.4-6.8-22.9-13.5-34.4-20.3c-0.7-0.4-1.4-0.9-2.8-1.9c9.1-3.5,17.5-6.7,26-9.9
			c3.6-1.4,7.1-3.2,10.8-3.8c9.2-1.6,12.8-7.4,14.8-15.9c2.5-11.1,6.3-21.9,9.8-34c5.6,6.9,10.5,12.9,15.4,18.9
			c4.1,5,8.2,10,12.1,15.3c1.6,2.2,3.3,2.9,5.9,2.8c14-0.5,27.9-0.8,41.9-1.1c1.4,0,3.4-0.8,4.2,0.6c0.9,1.7-1.1,3-2,4.2
			c-7.8,10.4-15.6,20.7-23.6,31c-2,2.6-2.7,4.7-1.2,8c3,6.8,5.2,13.9,8.2,22c3.5-6.4,6.4-11.9,9.5-17.3
			c14.9-25.9,34.8-47.3,59.1-64.7c1.2-0.8,3.3-1.4,3.2-2.9c-0.1-1.8-2.4-2-3.8-2.6c-7.5-3.2-15.1-6.1-22.5-9.4
			c-3-1.3-4.8,0.2-6.8,1.5c-10.7,7.1-21.3,14.3-31.9,21.5c-1.2,0.8-2.4,2.4-3.9,1.5c-1.2-0.7-0.6-2.5-0.5-3.7
			c0.7-12.9,1.1-25.9,2.3-38.8c0.3-3.7-0.9-5.4-3.5-7.3c-10.4-7.5-20.7-15.1-31-22.7c-1.5-1.1-2.9-2.2-5.1-3.9
			c9.1-2.5,17.5-4.7,25.9-7c6.6-1.7,13.2-3.5,19.8-5.1c2.4-0.6,3.9-1.8,4.9-4.3c5.2-13.4,10.7-26.8,16.5-41.1
			c6.4,9.9,12.4,19,18.4,28.1c0.2,0.3,0.4,0.6,0.5,0.9c3.7,8.5,9.4,12.4,19.5,12c12.3-0.5,24.8,1.5,37,2.4c0.8,1.9-0.5,2.6-1.2,3.4
			c-9.1,9.9-18.2,19.9-27.5,29.6c-2.5,2.7-3,5.1-2,8.5c2.3,8.1,4.5,16.3,6.4,24.6c0.9,4,2.4,4.2,5.7,2.3
			c22.3-12.2,46.1-20.1,71.2-23.1c32-3.8,63.4-0.9,93.9,10.1c10,3.6,19.9,7.6,29.1,13.1c3.6,2.2,5,1.6,5.9-2.6
			c1.9-8.6,4.1-17.1,6.5-25.6c0.7-2.6,0.4-4.2-1.4-6.2c-10.1-11-20.1-22.1-30.5-33.4c7.3-2.5,14.7-1.4,21.8-2.3
			c7.9-1,15.9-1,23.9-1.2c3-0.1,4.8-1,6.5-3.6c7.7-12.1,15.6-24,23.9-36.7c2,4.6,3.8,8.6,5.4,12.6c3.8,9.2,7.5,18.5,11.1,27.8
			c1.1,2.8,2.8,4.1,5.6,4.8c14,3.6,28,7.3,41.9,11c0.8,0.2,1.4,0.7,2.8,1.3c-7.4,5.4-14.3,10.4-21.3,15.6
			c-5.2,3.9-10.3,7.9-15.6,11.6c-1.9,1.3-2.6,2.8-2.5,5c0.8,13.4,1.6,26.9,2.4,40.3c0.1,1.3,1,2.8-0.3,3.7c-1.4,1-2.4-0.5-3.5-1.2
			c-11.4-7.5-22.7-15.1-34.1-22.7c-1.4-1-2.6-1.7-4.5-0.9c-9.2,3.9-18.4,7.6-28.7,11.8c32.4,22.1,56.6,50.2,73.2,85.7
			c3.2-8.7,6-16.5,9-24.2c0.9-2.3,0-3.7-1.3-5.4c-8.3-10.8-16.5-21.7-24.7-32.6c-0.8-1-1.4-2.2-2.2-3.4c9.1,0,17.8-0.1,26.6,0
			c7.3,0.1,14.6,0.5,22,0.5c3.1,0,4.3-2.8,5.9-4.8c8.3-10.3,16.6-20.7,25.6-32.1c2.4,7.7,4.5,14.4,6.5,21.1c2,6.8,4.1,13.7,5.9,20.6
			c0.8,3,2.3,4.7,5.4,5.8c13.2,4.6,26.3,9.6,39.3,14.4c1.2,0.4,3,0.5,3.1,2.1c0,1.5-1.8,1.8-2.9,2.4c-11.6,6.8-23.2,13.7-34.9,20.5
			c-2.7,1.6-3.9,3.4-3.9,6.7c0,8.5-0.4,17-0.9,25.4c-0.3,3.9,1,5.1,5,5.1c33.7-0.2,67.3-0.1,101-0.1c33.3,0,66.7,0,100,0
			c6.9,0,6.9,0,6.9,6.8c0,123.8-0.1,247.7,0.2,371.5c0,11.2,1.2,22.5,1.1,33.8c0,2.8-0.6,5.1-2.2,7.5
			c-16.4,24.9-32.8,49.8-49.1,74.7c-4.7,7.1-3.9,20.9,1.5,27.4c8.2,9.9,16.3,19.8,24.4,29.7c0.7,0.9,1.6,1.7,1.5,3.1
			c-1.5,1-3.2,0.5-4.7,0.5c-101.2,0.1-202.3,0.3-303.5-0.1c-13.9-0.1-27.9-0.7-41.8-0.8c-2.9,0-3.7-1.6-4.5-3.7
			c-2.1-5.7-4.2-11.4-6.8-18.6c-2.8,7.2-5.2,13-7.2,18.9c-0.9,2.6-2.3,3.6-5.1,3.5c-29.6-0.8-59.2,1.2-88.9,1
			c-56.2-0.3-112.3,0.2-168.5-0.3c-15.6-0.1-30.9,3.5-46.5,2.3c-19.9-1.5-38.8-5.5-55.4-17.4c-0.8-0.6-1.4-1.5-3.4-1.1
			c0,3.9-0.1,8,0,12c0.1,3.1-0.6,4.5-4.1,4.4c-17.2-0.2-34.3-0.1-51.5,0c-2.7,0-4.2-1.2-6-2.8c-5-4.6-8.6-10.5-14.3-14.5
			c-0.2-0.2-0.6-0.5-0.6-0.5C166,898.7,166.5,898.9,166.8,899.2z M163,894c0.3,0.3,0.6,0.7,1,1c-0.1,0.9,0.1,1.6,1.1,1.8
			c0.1,0,0.4-0.2,0.4-0.2c0-0.9-0.6-1.4-1.4-1.6C163.7,894.6,163.4,894.3,163,894c-0.1-0.3-0.1-1-0.7-0.4
			C162.5,893.8,162.8,893.9,163,894z M841.1,818.9c-0.1-0.4-0.2-0.8-0.4-1.2c-0.2,0.1-0.3,0.2-0.5,0.4c0.3,0.3,0.5,0.7,0.8,1
			c-0.2,1.6,0.6,2.9,1.3,4.2c7.5,15.3,14.9,30.5,22.4,45.7c1,2.1,1.7,4.6,3.9,6.7c0.9-9.1,1-17.1-5.2-24.4
			c-4.7-5.5-8-12.3-12.1-18.3C847.9,828.3,845.5,822.9,841.1,818.9z M536,234c-7.4-1.7-14.7-1.7-22.1,0c-6.3,0.7-12.6,1.2-18.8,2.2
			c-48.6,8.3-88.7,31.3-119.7,69.8c-16.4,20.4-28.2,43.2-34.7,68.6c-1.8,1.8-4.1,1.1-6.1,1.1c-89.2,0-178.4,0-267.6,0
			c-2,0-4,0.1-6,0.2c-0.2-0.1-0.3-0.2-0.5-0.2c-0.1,0-0.4,0.1-0.4,0.2c-0.1,1-0.2,1.9-0.2,2.9c0,119,0,238,0.1,357
			c0,0.9-1.2,2.6,1,3c1.3,0.1,2.7,0.2,4,0.2c306,0,612,0,917.9,0.1c4,0,5.3-0.8,5.3-5.1c-0.1-117.8-0.1-235.6,0-353.5
			c0-3.9-1-5-4.9-5c-91.3,0.1-182.7,0.1-274,0.1c-0.5-1.6-0.9-3.2-1.4-4.8c-21.1-65.1-64-108.4-129.4-129.3
			C564.7,237.4,550.4,235.8,536,234z M236.3,778.2c-0.4-0.3-0.7-0.6-1.1-0.9c5.5-7,11-13.9,16.8-21.2c-33,0-65.4,0-98.6,0
			c6.7,8.3,12.9,16,19.1,23.8c0.8,1,2.2,2.1,2.2,3.2c0.2,7.2,0.1,14.4,0.1,22.5c-14.1-16-27.6-31-40.8-46.1
			c-2.3-2.6-4.5-3.7-8.1-3.7c-17.5,0.2-35,0.1-52.5,0.1c-4.2,0-8.5,0-13.6,0c6.2,8.5,11.8,16.4,17.6,24c1.8,2.4,2.6,4.7,2.6,7.7
			c-0.1,25.8-0.5,51.7,0.2,77.5c0.3,10.1-1.9,18.3-9.1,25.5c-4.5,4.5-8,9.9-12.1,15.2c33,0,65.2,0,97.9,0
			c-6.7-8.2-13-15.9-19.3-23.7c-1-1.3-2.6-2.3-2.6-4.1c-0.1-7.5,0-15.1,0-24.1c2,2.3,2.9,3.4,3.9,4.5c13.8,14.9,27.6,29.8,41.3,44.8
			c1.8,2,3.5,3,6.3,3c12.8-0.1,25.7-0.1,38.5,0.3c4.4,0.1,5.2-1.3,5.1-5.3c-0.3-8.7-0.1-17.4-0.1-27c10.5,14.8,18.7,21.7,32.6,27
			c21.2,8.2,43.2,8.8,65.4,5.2c20.2-3.3,37.1-12.4,48.3-30.3c0.2-0.3,0.8-0.3,1.1-0.4c0.7,2.7-0.2,4.6-1.9,6.5
			c-2.5,2.7-4.9,5.5-7.2,8.3c-4.2,5-8.4,10-13.1,15.5c61.6,0,122.3,0,183.6,0c-1.3-2.1-2.2-3.6-3.2-5.1c-10.6-15.5-21.2-31-32-46.4
			c-2.2-3.1-2.7-4.8,0.8-7.4c7.4-5.3,11.9-12.9,14.7-21.4c0.4-1.2,0.3-2.6,1.8-3.3c10.1,26.2,20.3,52.4,30.3,78.6
			c1.3,3.4,2.9,4.5,6.5,4.4c12-0.2,24-0.3,36,0c4.2,0.1,6.1-1.3,7.5-5.2c3.9-10.8,8.2-21.5,12.7-33.4c4.4,12,8.4,22.9,12.2,33.9
			c1.1,3.3,2.5,4.7,6.2,4.7c12.2-0.3,24.3-0.3,36.5,0c3.5,0.1,4.9-1.3,6.1-4.3c13.1-32.7,26.3-65.3,39.6-98
			c5-12.4,10.1-24.7,15.4-37.8c1.7,3.7,2.9,6.6,4.4,9.3c1.4,2.5,1,4.6-0.1,7c-15.8,32.8-31.5,65.6-47.3,98.4
			c-4.1,8.5-8.1,17-12.4,25.9c31,0,61.3,0,92.3,0c-5.7-7.5-11-14.4-16.5-21.7c12.4,0,24.1,0,36.5,0c-5.7,7.5-11,14.4-16.6,21.6
			c62.8,0,124.8,0,187.8,0c-4.4-5.4-7.8-10.5-12.1-14.7c-7.9-7.6-11.1-16.3-9.7-27.2c0.6-4.8,0.6-9.2,3.5-13.6
			c14.7-21.8,28.7-44,43.6-65.7c5.2-7.6,8.2-15.1,7.4-24.5c-0.3-3.9-1.4-4.5-4.9-4.5C927.3,756,869.1,756,811,756
			c-1.2,0-2.6-0.7-3.7,0.8c18.4,27.9,36.3,56.2,55.4,83.6c7.7,11,11.6,22,10,35.2c0,0.3,0,0.7,0,1c0.1,1.6-0.4,2.9-1.5,4.1
			c-2.9,3.4-5.7,6.9-8.8,10.6c-0.8-1.5-1.6-2.6-2.1-3.7c-20.6-42.3-41.3-84.5-61.7-126.9c-1.8-3.7-3.8-4.9-7.8-4.9
			c-46.3,0.2-92.7,0.2-139,0.2c-1.4,0-2.8,0-5.1,0c6.1,7.9,11.6,14.9,17,22c0.8,1.1,2.4,2,1.7,3.8c-3,7.8-6,15.7-9.4,24.6
			c-5.5-16.5-10.7-31.6-15.6-46.9c-0.8-2.6-1.8-3.7-4.8-3.7c-11,0.2-22,0.2-33,0c-3.2-0.1-4.3,1.2-5.3,3.9
			c-4.3,11.7-8.8,23.3-13.3,34.9c-1.3,3.4-2.2,7.1-4.6,10.6c-2.2-6.8-4-13.2-6.4-19.4c-1.3-3.5-0.9-6.1,1.6-9
			c5.5-6.5,10.5-13.4,16.2-20.8c-32.4,0-63.8,0-95.4,0c0.1,2.4,2.1,4.3,1.6,6.8c-10.3-4.8-20.8-6.9-31.7-6.9
			c-35.5-0.1-71-0.1-106.5-0.1c-1.1,0-2.3-0.5-3.6,0.8c6.6,7.6,13.3,15.2,19.9,22.9c2.9,3.3,2.9,3.3,1.9,8.2
			c-9.3-15.4-22.9-24.7-39.6-29.6c-14.4-4.2-29.2-4.9-44.1-3.9C271.5,755.7,251.7,761.9,236.3,778.2z M765.9,266.2
			c-5.7,7.2-10.7,13.4-15.6,19.8c-1.6,2.2-3.3,3.1-6.2,3.1c-8.4-0.2-16.8-1.6-25.9-0.8c5.1,6.9,9.8,13.5,14.8,19.9
			c1.9,2.4,2.1,4.4,1,7.2c-2.9,7.3-5.5,14.7-8.5,23c8.4-2.5,15.8-4.7,23.2-7c3-0.9,5.3-1,8,1.4c5.9,5.2,12.3,10,18.5,14.9
			c0.5-0.1,1.1-0.2,1.6-0.3c0-7.4,0.2-14.8-0.1-22.2c-0.1-3.9,1.1-6.4,4.6-8.3c6.9-3.8,13.5-8,20.7-12.4c-8.7-3.1-16.6-6.1-24.6-8.9
			c-2.6-0.9-4-2.3-4.7-5.1C770.9,282.7,768.5,275,765.9,266.2z M331.3,288.2c-8.9-0.6-16.9,0.6-25,0.9c-3.2,0.1-5.4-0.6-7.5-3.4
			c-4.7-6.4-9.8-12.5-15.3-19.3c-2.5,8.7-4.9,16.5-7.1,24.5c-0.7,2.5-1.8,3.8-4.4,4.7c-8.1,2.7-16,5.8-24.8,9.1
			c6.5,3.9,12.1,7.9,18.2,10.8c5.8,2.8,7.7,6.9,7.4,12.9c-0.3,6.4-0.1,12.8-0.1,20.5c7.4-5.9,13.5-10.6,19.4-15.7
			c2.7-2.3,5.1-2.9,8.5-1.7c7.5,2.5,15.1,4.6,23.3,7c-3-8.3-5.6-15.7-8.6-23.1c-1.1-2.8-0.9-4.8,1-7.2
			C321.4,301.8,326.1,295.2,331.3,288.2z M630.2,188.2c5.8,6.4,10.7,12.2,16.1,17.5c3,3,3.5,5.8,2.3,9.7c-2.1,7.1-3.8,14.3-5.9,22.3
			c8-3.2,15.1-5.8,21.9-9c3.6-1.7,6.2-1.3,9.4,1c6.3,4.5,12.9,8.6,19.6,13c-0.3-5.5,0.4-10.7-0.9-15.4c-3-10.9,2.2-16.9,10.8-21.9
			c4-2.3,7.9-5.1,11.4-8.9c-8.2-2.1-15.7-4.3-23.3-6c-3.9-0.8-5.9-2.6-7.2-6.3c-2.5-7.2-5.6-14.2-8.7-22.1
			c-5,7.8-9.5,14.5-13.7,21.5c-1.5,2.5-3.3,3.3-6,3.4C647.9,187.3,639.8,187.8,630.2,188.2z M334.1,196.7c5.2,3.9,9.3,7.8,14.2,10.4
			c7.8,4.3,10.2,10.3,8.7,18.8c-0.9,5.2-1.6,10.6-0.6,16.5c6.8-4.4,13.3-8.4,19.5-12.9c2.9-2.1,5.2-2.3,8.5-0.9
			c7,3.2,14.2,5.8,22.3,9.1c-2.2-8.7-3.8-16.2-6.1-23.6c-0.9-3-0.3-4.9,1.7-7.1c5.5-5.9,10.8-12,16.9-18.7c-9.1-0.5-17.2-1-25.2-1.2
			c-3.2-0.1-5.2-1.1-6.8-3.8c-4.2-6.9-8.7-13.6-13.5-21.1c-3.3,8.2-6.3,15.5-9,22.9c-1.1,2.9-2.5,4.5-5.8,5.2
			C350.9,192,343,194.3,334.1,196.7z M771,361.9c0.2-0.3,0.3-0.7,0.5-1c-6.7-5.4-13.3-10.7-20-16.1c-1.2-0.9-2.4-0.6-3.8-0.2
			c-8.9,2.8-17.7,5.7-26.7,8.1c-4.2,1.1-4.3,3.1-2.9,6.4c0.8,1.9,2,2.8,4.1,2.8c4-0.1,8,0,12,0C746.6,361.9,758.8,361.9,771,361.9z
			 M278.2,360.7c0.1,0.4,0.3,0.8,0.4,1.1c16.5,0,33.1,0.1,49.6,0c3.2,0,3-3.2,3.6-5.2c0.8-2.4-1-3.1-2.9-3.7
			c-9.2-2.7-18.4-5.5-27.6-8.3c-1.1-0.3-2.2-0.8-3.3,0C291.5,350,284.9,355.3,278.2,360.7z M539.3,883.4c-5-12.9-9.9-25.6-15-38.6
			c-2.1,2.3-3.6,4.2-5.3,5.7c-2.2,1.8-1.9,3.4-0.4,5.5c5.8,8.3,11.4,16.7,17.2,25.1C536.5,882.1,537,883.4,539.3,883.4z
			 M539.3,885.4l0.2,0.2l0-0.3L539.3,885.4z"/>
		<path class="st0" d="M484.5,221.8c1.5-9.5,2.7-17.7,4-25.8c1-6.5,2-13.1,3.2-19.6c0.4-2.3-1-3.4-2.3-4.6
			c-9.4-8.5-18.8-16.9-28.2-25.4c-1.8-1.6-3.5-3.3-6.1-5.7c10-1.7,19-3.2,27.9-4.7c6-1,12.1-2.2,18.2-2.8c3.4-0.3,4.8-2.1,6.2-4.8
			c6.4-12.6,13-25.1,19.9-38.3c2.4,4.4,4.6,8.1,6.6,12c4.8,9.1,9.5,18.3,14.2,27.5c1.1,2.1,2.3,3.1,4.9,3.5
			c14.4,2.2,28.8,4.6,43.2,6.9c0.8,0.1,2-0.1,2.2,0.8c0.4,1.8-1.3,2.5-2.3,3.4c-10.1,9.2-20.2,18.3-30.4,27.3
			c-2.2,1.9-2.6,3.5-2.1,6.4c2.3,12.9,4.2,25.8,6.2,38.8c0.2,1.3,0.8,2.9-0.4,3.8c-1.2,0.9-2.5-0.5-3.6-1.1
			c-11.6-6.1-23.2-12.3-34.8-18.6c-2.6-1.4-4.5-1.5-7.2,0C511.3,207.8,498.7,214.3,484.5,221.8z M484.8,150.3
			c6.3,5.8,12.1,11.2,18.1,16.4c2.8,2.4,3.4,4.7,2.7,8.2c-1.5,7.5-2.5,15.1-3.8,23.4c8-4.3,15.3-8,22.4-11.9c2.3-1.3,4-1.4,6.4-0.1
			c7.2,4,14.6,7.8,22.5,11.9c-1.3-8-2.3-15.4-3.8-22.7c-0.8-4-0.1-6.8,3.2-9.5c5.9-4.9,11.5-10.3,17.5-15.8
			c-9.2-1.5-17.5-3-25.9-4.1c-2.7-0.4-4.1-1.5-5.2-3.8c-3.7-7.4-7.5-14.8-11.5-22.7c-4,7.9-7.8,15.2-11.5,22.6
			c-1.1,2.2-2.3,3.5-5.1,3.9C502.4,147.3,494,148.8,484.8,150.3z"/>
		<path class="st1" d="M61,376c2-0.1,4-0.2,6-0.2c89.2,0,178.4,0,267.6,0c2.1,0,4.4,0.7,6.1-1.1c1.2,1.7,2.9,1.3,4.6,1.3
			c11.6,0,23.3,0,34.9,0c11.9-0.2,23.9-0.4,35.8-0.6c18,0.6,36,0.3,54,0.2c1.1,0.2,2.3,0.5,3.4,0.5c35.6,0,71.2,0,106.9,0
			c1,0,2-0.2,3-0.3l0.3,0l0.2-0.2c18,0.3,36,0.6,54-0.1c10.4,1.1,20.8-0.1,31.2,0.7c13.5,0,26.9-0.1,40.4-0.1
			c91.3,0,182.7,0,274-0.1c3.9,0,5,1,4.9,5c-0.1,117.8-0.1,235.6,0,353.5c0,4.3-1.3,5.1-5.3,5.1c-306-0.1-612-0.1-917.9-0.1
			c-1.3,0-2.7-0.1-4-0.2C61,618,61,497,61,376z M525.1,404c-140.8,0-281.7,0-422.5,0c-7,0-6.3-1-6.3,6.5c0,98,0,196,0,294
			c0,7.5-0.7,6.5,6.2,6.5c281.5,0,563,0,844.5,0.1c4.6,0,6.1-0.8,6.1-5.8c-0.2-98.5-0.2-197,0-295.5c0-4.9-1.3-5.9-6-5.9
			C806.4,404,665.8,404,525.1,404z"/>
		<path class="st2" d="M236.3,778.2c15.4-16.4,35.2-22.6,56.9-24c14.9-1,29.7-0.3,44.1,3.9c16.7,4.9,30.3,14.2,39.6,29.6
			c1-4.9,1-4.9-1.9-8.2c-6.6-7.6-13.2-15.2-19.9-22.9c1.3-1.3,2.5-0.8,3.6-0.8c35.5,0,71,0,106.5,0.1c10.9,0,21.5,2.1,31.7,6.9
			c0.5-2.6-1.5-4.4-1.6-6.8c31.6,0,62.9,0,95.4,0c-5.7,7.4-10.8,14.3-16.2,20.8c-2.5,2.9-2.9,5.5-1.6,9c2.3,6.2,4.1,12.6,6.4,19.4
			c2.5-3.5,3.3-7.2,4.6-10.6c4.6-11.6,9-23.2,13.3-34.9c1-2.6,2.1-4,5.3-3.9c11,0.2,22,0.2,33,0c2.9-0.1,3.9,1.1,4.8,3.7
			c5,15.2,10.1,30.4,15.6,46.9c3.4-8.9,6.4-16.8,9.4-24.6c0.7-1.9-0.8-2.7-1.7-3.8c-5.4-7.1-10.9-14.1-17-22c2.3,0,3.7,0,5.1,0
			c46.3,0,92.7,0,139-0.2c4.1,0,6,1.2,7.8,4.9c20.4,42.4,41.1,84.6,61.7,126.9c0.6,1.2,1.3,2.3,2.1,3.7c3.1-3.7,5.9-7.2,8.8-10.6
			c1-1.2,1.6-2.5,1.5-4.1c0-0.3,0-0.7,0-1c1.7-13.1-2.2-24.1-10-35.2c-19.2-27.4-37-55.6-55.4-83.6c1.1-1.5,2.6-0.8,3.7-0.8
			c58.2,0,116.3,0,174.5-0.1c3.5,0,4.5,0.6,4.9,4.5c0.8,9.3-2.2,16.8-7.4,24.5c-14.9,21.7-28.9,43.9-43.6,65.7
			c-2.9,4.4-2.9,8.8-3.5,13.6c-1.3,10.9,1.8,19.6,9.7,27.2c4.4,4.2,7.8,9.4,12.1,14.7c-63,0-125,0-187.8,0
			c5.6-7.3,10.9-14.2,16.6-21.6c-12.4,0-24.1,0-36.5,0c5.6,7.3,10.8,14.2,16.5,21.7c-31.1,0-61.3,0-92.3,0
			c4.3-8.9,8.3-17.4,12.4-25.9c15.7-32.8,31.5-65.6,47.3-98.4c1.2-2.4,1.5-4.6,0.1-7c-1.5-2.7-2.7-5.7-4.4-9.3
			c-5.3,13.1-10.4,25.4-15.4,37.8c-13.2,32.6-26.4,65.3-39.6,98c-1.2,3-2.5,4.4-6.1,4.3c-12.2-0.3-24.3-0.3-36.5,0
			c-3.8,0.1-5.1-1.4-6.2-4.7c-3.7-11-7.8-21.8-12.2-33.9c-4.5,11.8-8.8,22.5-12.7,33.4c-1.4,3.9-3.3,5.3-7.5,5.2
			c-12-0.3-24-0.3-36,0c-3.6,0.1-5.2-1.1-6.5-4.4c-10-26.2-20.2-52.4-30.3-78.6c-1.5,0.7-1.4,2.1-1.8,3.3
			c-2.8,8.6-7.3,16.1-14.7,21.4c-3.6,2.6-3,4.3-0.8,7.4c10.8,15.4,21.4,30.9,32,46.4c1,1.5,1.9,3,3.2,5.1c-61.3,0-121.9,0-183.6,0
			c4.7-5.6,8.9-10.6,13.1-15.5c2.4-2.8,4.7-5.6,7.2-8.3c1.7-1.8,2.6-3.8,1.9-6.5c-0.4,0.1-1,0.1-1.1,0.4c-11.2,18-28.1,27-48.3,30.3
			c-22.1,3.6-44.1,3-65.4-5.2c-13.9-5.4-22-12.2-32.6-27c0,9.7-0.2,18.3,0.1,27c0.1,4-0.7,5.4-5.1,5.3c-12.8-0.4-25.6-0.4-38.5-0.3
			c-2.8,0-4.5-1-6.3-3c-13.7-15-27.5-29.9-41.3-44.8c-1-1.1-1.9-2.2-3.9-4.5c0,9,0,16.6,0,24.1c0,1.8,1.6,2.9,2.6,4.1
			c6.3,7.7,12.6,15.4,19.3,23.7c-32.8,0-65,0-97.9,0c4.1-5.3,7.6-10.7,12.1-15.2c7.2-7.2,9.4-15.4,9.1-25.5
			c-0.7-25.8-0.3-51.7-0.2-77.5c0-3-0.8-5.4-2.6-7.7c-5.8-7.7-11.4-15.5-17.6-24c5.1,0,9.4,0,13.6,0c17.5,0,35,0.1,52.5-0.1
			c3.5,0,5.8,1.1,8.1,3.7c13.3,15.2,26.7,30.2,40.8,46.1c0-8.1,0.1-15.3-0.1-22.5c0-1.1-1.4-2.2-2.2-3.2
			c-6.2-7.7-12.4-15.5-19.1-23.8c33.2,0,65.6,0,98.6,0c-5.8,7.3-11.3,14.3-16.8,21.2c-2.1,2.7-5.7,4.5-4.9,9.4
			C232.5,783.6,234.4,780.9,236.3,778.2z M507.3,769.3c0.3,1.1,0.5,1.9,0.8,2.7c15.1,39.1,30.3,78.1,45.3,117.2
			c1,2.5,2.3,3.2,4.8,3.1c6.8-0.1,13.7-0.2,20.5,0c3.2,0.1,4.7-0.9,5.8-3.9c4.7-12.8,9.7-25.5,14.6-38.2c2.5-6.4,5-12.8,7.9-20.4
			c1,2.5,1.6,3.8,2.1,5.1c6.3,17.5,12.7,35,18.8,52.6c1.2,3.5,2.7,5.1,6.6,4.8c5.8-0.4,11.7-0.4,17.5,0c4.1,0.3,5.7-1.4,7.2-5
			c11.3-28.3,22.7-56.4,34.1-84.6c4.5-11.1,9-22.1,13.5-33.3c-13.5,0-26.5,0-40.1,0c1,1.4,1.6,2.5,2.4,3.2c4.1,3.8,4.1,7.7,2,12.8
			c-7.4,18.3-14.2,36.9-21.3,55.4c-0.4,1-0.2,2.8-2.3,2.9c-6.5-19.4-12.9-38.8-19.4-58.1c-1.8-5.5-1.9-13.2-6.2-15.7
			c-4.5-2.6-11.6-0.7-17.6-0.9c-2.5-0.1-3.9,0.7-4.8,3.2c-1.9,5.7-4.2,11.2-6.4,16.8c-7.1,18.5-14.2,37-21.6,56.2
			c-0.7-2-1.2-3.2-1.6-4.5c-5.4-16.8-10.5-33.6-16.4-50.2c-2.7-7.7-4.4-14.4,2.7-20.4c0.1-0.1,0-0.3-0.1-0.7
			C540,769.3,523.9,769.3,507.3,769.3z M473.8,844.7c20.9-6.8,26.7-18.7,27.6-35c0.9-17.7-5.5-32.3-25.2-37.9
			c-6.8-1.9-13.7-2.8-20.7-2.8c-24.8,0-49.6,0-74.5,0c-1.4,0-2.9-0.5-5,1.2c8.6,4.3,7.3,11.9,7.3,19.3c-0.1,28.1-0.2,56.3,0.1,84.4
			c0.1,6.9-0.3,13.2-6,18c-0.1,0.1,0,0.6,0,1.1c16.4,0,32.7,0,49.5,0c-2-5.1-7.9-7.6-7.1-14c0.7-5.4,0.1-11,0.1-16.5
			c0-1.2,0-2.3,0-3.5c0-10,0-9.8,10.1-10.1c4.4-0.2,6.9,1.2,9.2,5c4.5,7.4,9.5,14.5,14.3,21.6c5.4,8,5.4,8-0.5,15.9
			c-0.3,0.4-0.4,0.8-0.7,1.5c18.1,0,35.9,0,54.4,0C495.6,876.5,484.8,860.6,473.8,844.7z M297.6,895.2c6.3,0.1,12.6-0.3,18.9-1.1
			c25.5-3.5,42.5-17.8,48.1-41.3c3.5-14.8,3.3-29.7-0.5-44.5c-5-19.2-17.5-31.5-36.2-37.1c-20.1-5.9-40.5-5.9-60.6-0.6
			c-19.9,5.2-33.5,17.4-38.7,37.7c-3.8,14.8-3.7,29.7,0,44.5c4.6,18.6,16.2,30.9,34.2,37.3C274,894.1,285.7,895.4,297.6,895.2z
			 M115,821.1c1.2,1,1.6,1.4,2,1.8c20.6,22.4,41.3,44.8,61.9,67.3c2,2.1,3.9,3.1,6.9,3c6.2-0.2,12.3-0.3,18.5,0
			c4.4,0.3,5.9-0.8,5.8-5.6c-0.2-32,0-64-0.2-96c-0.1-8-0.2-15.6,6.6-21.3c0.2-0.1,0.1-0.6,0.1-1.1c-14,0-28,0-42.7,0
			c1.2,1.5,1.8,2.6,2.7,3.5c3.7,3.5,4.6,7.6,4.4,12.6c-0.3,12.3-0.1,24.7-0.1,37c0,5.6,0,11.1,0,17.7c-1.3-1.4-1.8-2-2.3-2.6
			c-19.2-21.7-38.5-43.3-57.7-65c-1.3-1.4-2.2-3.5-4.6-3.5c-12.3,0-24.5,0-37.5,0c1.2,1.7,1.8,2.9,2.7,3.8c3.9,3.9,4.7,8.7,4.6,14.1
			c-0.2,28.7-0.3,57.3,0,86c0.1,7.3-0.8,13.8-6.4,18.9c-0.2,0.2-0.1,0.6-0.1,1c14,0,28,0,42.6,0c-1.1-1.6-1.8-2.8-2.7-3.6
			c-4.1-3.5-4.8-7.9-4.6-13c0.3-10,0.1-20,0.1-30C115,838.2,115,830.1,115,821.1z M789.1,893.6c17.3,0,33.3,0,49.2,0
			c3.1,0,2.7-1.2,1.7-3.3c-5.3-10.7-10.6-21.5-15.8-32.2c-13.9-28.5-27.8-57.1-41.6-85.6c-1-2-1.7-3.6-4.6-3.6c-12,0.2-24,0.2-36,0
			c-3.3,0-3,1.2-2,3.5c1.3,2.9,3.2,5.4,1.3,9.2c-11.8,24.2-23.4,48.5-35,72.8c-6.1,12.7-12.1,25.4-18.3,38.3c14.9,0,29.4,0,44.3,0
			c-0.7-1.1-0.9-1.7-1.3-2.1c-5.4-4.6-5-9.4-1.3-15.1c1.9-3,3.4-4.5,7.2-4.5c15,0.2,30,0.6,45-0.1c7.1-0.3,11,1.6,13.1,8.5
			c1,3.3,1.2,5.6-1.2,8.1C792.3,889.1,791.1,890.9,789.1,893.6z M922.1,893c0.3-0.3,0.7-0.6,1-1c-8.1-4.9-7.6-12.5-7.3-20
			c0.2-5,0.2-10,0-15c-0.2-3.5,0.9-6.4,2.8-9.3c16.4-24.8,32.8-49.7,49.1-74.6c0.8-1.2,2.2-2.1,1.8-3.7c-14.4,0-28.8,0-43.7,0
			c1.5,1.4,2.3,2.5,3.4,3.1c3.8,2.1,3.7,4.3,1.3,7.8c-5.9,8.7-11.3,17.7-16.9,26.5c-4,6.4-8.1,12.7-12.5,19.6
			c-8.9-14.4-17.4-28.1-25.9-41.7c-4.9-7.9-4.9-7.9,1.2-14.7c0.1-0.1,0-0.3-0.1-0.5c-17.2,0-34.5,0-52.3,0
			c14.5,22.1,28.1,44,43.1,64.9c8.4,11.7,12.4,23.5,11.3,37.8c-0.6,7.5-0.5,14.5-6.8,19.8c-0.1,0.1,0,0.6,0,1
			C888.6,893,905.4,893,922.1,893z M908.4,801.7c4.7-7.5,9.1-14.4,13.6-21.4c0.9-1.4,0.7-2.3-0.6-3.3c-4-3.2-7.9-6.6-11.8-9.9
			c-1.1-1-2-1.4-3.3-0.1c-3.6,3.5-7.3,6.8-11,10.1c-1.1,1-1,1.8-0.3,3C899.3,787.1,903.7,794.2,908.4,801.7z M440.6,869.1
			c-1.3,6.6-0.4,11.6,4.1,15.3c0.8,0.7,1.1,3,2.8,1.5c1.2-1.1,3.1-2.2,1.5-4.5C446.2,877.6,443.7,873.6,440.6,869.1z"/>
		<path class="st2" d="M709.3,375.8c-13.5,0-26.9,0.1-40.4,0.1c0.8-2.3-0.5-4.3-1.3-6.2c-13.1-33-34.8-58.7-65.4-76.9
			c-10.1-6-20.6-11.4-32.3-13.9l0,0c-0.8-1.3-2.1-1-3.3-1c-22.2-7-44.7-7.9-67.6-3.8c-1.5-0.1-3-0.3-4.2,0.9l0.1,0
			c-1.5,0.2-3,0.1-4.4,0.5c-48,12-82.9,40.2-104.6,84.6c-2.5,5-5.3,10-5.8,15.8c-11.6,0-23.3,0.1-34.9,0c-1.6,0-3.4,0.4-4.6-1.3
			c6.5-25.5,18.3-48.3,34.7-68.6c31-38.5,71.1-61.5,119.7-69.8c6.2-1.1,12.5-1.5,18.8-2.2c7.4,0,14.7,0,22.1,0
			c14.3,1.7,28.7,3.4,42.5,7.8c65.4,20.8,108.3,64.1,129.4,129.3C708.4,372.7,708.9,374.3,709.3,375.8z"/>
		<path class="st3" d="M765.9,266.2c2.5,8.8,4.9,16.5,7,24.3c0.7,2.7,2.1,4.2,4.7,5.1c8,2.7,15.9,5.7,24.6,8.9
			c-7.2,4.3-13.8,8.6-20.7,12.4c-3.5,1.9-4.8,4.4-4.6,8.3c0.3,7.4,0.1,14.8,0.1,22.2c-0.5,0.1-1.1,0.2-1.6,0.3
			c-6.2-4.9-12.6-9.6-18.5-14.9c-2.7-2.4-5.1-2.3-8-1.4c-7.4,2.3-14.8,4.5-23.2,7c3-8.3,5.6-15.7,8.5-23c1.1-2.8,0.9-4.8-1-7.2
			c-5-6.4-9.7-13-14.8-19.9c9.1-0.8,17.5,0.7,25.9,0.8c2.9,0.1,4.6-0.9,6.2-3.1C755.2,279.7,760.2,273.5,765.9,266.2z"/>
		<path class="st3" d="M331.3,288.2c-5.2,7-9.9,13.6-14.9,19.9c-1.9,2.4-2.1,4.4-1,7.2c2.9,7.3,5.5,14.8,8.6,23.1
			c-8.2-2.4-15.8-4.5-23.3-7c-3.4-1.1-5.8-0.6-8.5,1.7c-5.9,5.1-12.1,9.8-19.4,15.7c0-7.7-0.2-14.1,0.1-20.5
			c0.3-6.1-1.6-10.2-7.4-12.9c-6.1-2.9-11.7-6.9-18.2-10.8c8.8-3.2,16.7-6.3,24.8-9.1c2.6-0.9,3.7-2.1,4.4-4.7
			c2.1-7.9,4.5-15.8,7.1-24.5c5.5,6.8,10.6,12.9,15.3,19.3c2.1,2.8,4.3,3.5,7.5,3.4C314.4,288.8,322.4,287.6,331.3,288.2z"/>
		<path class="st3" d="M630.2,188.2c9.5-0.5,17.7-0.9,25.8-1.2c2.7-0.1,4.5-0.9,6-3.4c4.2-7,8.7-13.7,13.7-21.5
			c3.2,7.9,6.3,14.8,8.7,22.1c1.3,3.8,3.3,5.5,7.2,6.3c7.6,1.6,15.1,3.8,23.3,6c-3.5,3.8-7.4,6.6-11.4,8.9c-8.6,5-13.8,11-10.8,21.9
			c1.3,4.7,0.6,9.9,0.9,15.4c-6.7-4.4-13.3-8.4-19.6-13c-3.2-2.3-5.8-2.6-9.4-1c-6.9,3.2-14,5.8-21.9,9c2.1-8,3.8-15.2,5.9-22.3
			c1.2-3.9,0.7-6.7-2.3-9.7C640.9,200.5,636,194.7,630.2,188.2z"/>
		<path class="st3" d="M334.1,196.7c8.9-2.3,16.7-4.7,24.7-6.4c3.3-0.7,4.7-2.3,5.8-5.2c2.7-7.4,5.8-14.7,9-22.9
			c4.8,7.5,9.3,14.2,13.5,21.1c1.7,2.8,3.7,3.8,6.8,3.8c8.1,0.2,16.1,0.7,25.2,1.2c-6,6.7-11.3,12.8-16.9,18.7c-2,2.2-2.6,4-1.7,7.1
			c2.2,7.4,3.9,15,6.1,23.6c-8.1-3.3-15.3-5.9-22.3-9.1c-3.3-1.5-5.6-1.2-8.5,0.9c-6.2,4.4-12.7,8.4-19.5,12.9
			c-1.1-5.8-0.3-11.2,0.6-16.5c1.5-8.5-0.9-14.5-8.7-18.8C343.4,204.4,339.3,200.5,334.1,196.7z"/>
		<path class="st4" d="M771,361.9c-12.2,0-24.5,0-36.7,0c-4,0-8-0.1-12,0c-2.2,0.1-3.3-0.8-4.1-2.8c-1.5-3.3-1.3-5.3,2.9-6.4
			c9-2.4,17.8-5.3,26.7-8.1c1.3-0.4,2.6-0.8,3.8,0.2c6.7,5.3,13.3,10.7,20,16.1C771.4,361.2,771.2,361.5,771,361.9z"/>
		<path class="st4" d="M278.2,360.7c6.6-5.4,13.2-10.7,19.9-16.1c1.1-0.9,2.2-0.4,3.3,0c9.2,2.8,18.4,5.6,27.6,8.3
			c1.9,0.6,3.7,1.3,2.9,3.7c-0.7,2-0.4,5.2-3.6,5.2c-16.5,0.1-33.1,0-49.6,0C278.5,361.4,278.4,361.1,278.2,360.7z"/>
		<path class="st5" d="M61,376c0,121,0,242,0,363c-2.2-0.3-1-2-1-3C60,617,60,498,60,379c0-1,0.1-1.9,0.2-2.9c0-0.1,0.2-0.2,0.4-0.2
			C60.7,375.8,60.9,376,61,376z"/>
		<path class="st4" d="M841.1,818.9c4.4,4,6.8,9.3,10.1,14.1c4.2,6,7.4,12.7,12.1,18.3c6.1,7.3,6,15.3,5.2,24.4
			c-2.2-2.1-2.9-4.5-3.9-6.7c-7.5-15.2-15-30.5-22.4-45.7c-0.7-1.3-1.5-2.6-1.3-4.2L841.1,818.9z"/>
		<path class="st4" d="M539.3,883.4c-2.3,0-2.8-1.4-3.5-2.4c-5.8-8.3-11.4-16.7-17.2-25.1c-1.5-2.1-1.8-3.7,0.4-5.5
			c1.8-1.5,3.2-3.4,5.3-5.7C529.4,857.8,534.3,870.5,539.3,883.4z"/>
		<path class="st5" d="M536,234c-7.4,0-14.7,0-22.1,0C521.3,232.3,528.7,232.3,536,234z"/>
		<path class="st6" d="M164,895c0.8,0.3,1.4,0.7,1.4,1.7c0,0.1-0.3,0.3-0.4,0.2C164.1,896.6,163.9,895.9,164,895
			C164,895,164,895,164,895z"/>
		<path class="st4" d="M840.9,819c-0.3-0.3-0.5-0.7-0.8-1c0.2-0.1,0.3-0.2,0.5-0.4c0.1,0.4,0.2,0.8,0.4,1.2
			C841.1,818.9,840.9,819,840.9,819z"/>
		<polygon class="st4" points="539.3,885.4 539.6,885.3 539.5,885.6 		"/>
		<path class="st6" d="M163,894c-0.2-0.1-0.4-0.2-0.7-0.4C162.9,893,162.9,893.7,163,894L163,894z"/>
		<path class="st6" d="M163,894c0.3,0.3,0.7,0.7,1,1c0,0-0.1,0.1-0.1,0.1C163.6,894.7,163.3,894.4,163,894C163,894,163,894,163,894z
			"/>
		<path class="st6" d="M166.8,899.2c-0.3-0.3-0.8-0.5-0.2-0.9c0.1,0,0.4,0.3,0.6,0.5C167.1,898.9,167,899,166.8,899.2z"/>
		<path class="st3" d="M484.8,150.3c9.1-1.5,17.6-3.1,26-4.1c2.8-0.4,4-1.7,5.1-3.9c3.7-7.4,7.5-14.8,11.5-22.6
			c4,7.9,7.8,15.3,11.5,22.7c1.1,2.3,2.5,3.4,5.2,3.8c8.4,1.1,16.7,2.6,25.9,4.1c-6.1,5.5-11.6,10.9-17.5,15.8
			c-3.3,2.7-4,5.5-3.2,9.5c1.5,7.3,2.5,14.6,3.8,22.7c-7.9-4.2-15.3-7.9-22.5-11.9c-2.4-1.3-4.1-1.2-6.4,0.1
			c-7.1,3.9-14.3,7.6-22.4,11.9c1.3-8.3,2.4-15.9,3.8-23.4c0.7-3.5,0.1-5.9-2.7-8.2C496.9,161.6,491.2,156.1,484.8,150.3z"/>
		<path class="st7" d="M525.1,404c140.7,0,281.3,0,422-0.1c4.7,0,6,1,6,5.9c-0.2,98.5-0.2,197,0,295.5c0,5-1.5,5.8-6.1,5.8
			c-281.5-0.1-563-0.1-844.5-0.1c-7,0-6.2,1-6.2-6.5c0-98,0-196,0-294c0-7.4-0.7-6.5,6.3-6.5C243.5,404,384.3,404,525.1,404z
			 M324.6,631.3c1.2,5.1,4.9,4.7,8.5,4.6c1.7-0.1,3.4,0.2,5,0c4.4-0.6,6,0.8,5.9,5.6c-0.4,13.3-0.1,26.7-0.1,40
			c0,5.6-0.8,11.3,4.1,16c2,1.9,3.2,3.6,6.3,3.6c13.7-0.2,27.3-0.3,41,0c4.9,0.1,6.6-0.9,6.5-6.2c-0.4-18,0-36-0.2-54
			c0-4,1.2-5.3,5.1-5c3.1,0.3,6.4,0.3,9.5,0c4.4-0.4,6,0.8,5.9,5.6c-0.4,13.3-0.1,26.7-0.1,40c0,5.5-0.6,10.8,3.9,15.5
			c2.4,2.5,4,4,7.6,4c24.5-0.2,49-0.1,73.5-0.1c6.8,0,13.7-0.1,20.5,0.1c3.3,0.1,4.1-0.9,3.2-4.1c-1-3.7-1.5-7.5-2.2-11.3
			c-0.2-0.9-0.6-2,0.6-2.6c1.2-0.6,2.2-0.4,3,0.9c0.7,1.1,1.4,2.3,2.2,3.4c6.1,8.2,14.1,13.3,24.4,13.5c14,0.3,28,0.3,42,0
			c11.2-0.3,20.8-4,26.4-14.9c2-4,4.7-3.8,7.1,0.1c5.6,9,13.6,14.4,24.1,14.8c14.6,0.5,29.3,0.4,44,0c10.6-0.3,20-3.9,25.3-14.1
			c1.3-2.5,2-5.3,3.1-8.3c0.7,0.9,1.1,1.3,1.5,1.9c0.8,1.3,1.6,2.5,2.4,3.8c6.5,11.2,16.3,16.7,29.2,16.7c11.3,0.1,22.7-0.1,34,0
			c11.6,0.2,22.2-1.8,30.2-12.3c0.1,4.7,4.4,6,5.4,9.6c0.6,2.2,2.4,2.8,4.7,2.8c14.8-0.1,29.7-0.1,44.5,0c3.3,0,3.9-1.3,3.8-4.1
			c-0.2-7,0.1-14-0.1-21c-0.1-3.3,1-4.3,4.3-4.2c6.5,0.1,13,0.6,19.4-0.6c12.5-2.2,24.1-13,23.3-26.9c-0.7-13-0.5-26,0-39
			c0.3-9.8-4.6-17.5-9-25.4c-1.8-3.2-5-5.3-8.4-6.8c-5.7-2.6-11.8-3.7-18-3.7c-21.8-0.1-43.7,0-65.5-0.1c-3,0-4.9,0.6-4.6,4.3
			c-0.3-2.7-0.7-4.4-4-4.4c-31,0.2-62,0.1-93,0c-2.9,0-3.8,0.9-3.7,3.7c0.2,5.4,0.1,10.7,0.1,16.9c-0.9-1.2-1.4-1.5-1.5-1.9
			c-4.1-12.2-13.5-17.5-25.4-18.3c-15.8-1.1-31.7-0.8-47.5-0.1c-10.3,0.4-18.4,5.5-23.7,14.4c-1.1,1.9-1.8,4-2.9,6.4
			c-0.8-1.3-1.4-2-1.6-2.7c-3.9-11.5-12.6-16.8-24.1-17.8c-16.1-1.4-32.3-0.9-48.4-0.3c-7.4,0.3-13.8,3.6-19.3,8.5
			c-4,3.6-6.1,8.5-7.7,13.7c-2.7-3.1-3.3-6.8-5.1-9.7c-6.5-10.5-17-12.7-28.1-12.8c-21.8-0.3-43.7,0-65.5-0.2
			c-3.1,0-4.6,0.9-4.7,4.3c0.6-4-1.6-4.3-4.5-4.3c-30.5,0.1-61,0.1-91.5,0c-3.3,0-5,0.8-4.8,4.5c0.1-3.3-1-4.6-4.4-4.5
			c-30.7,0.1-61.3,0.1-92,0c-3.7,0-4.4,1.4-4.3,4.7c0.2,5.8,0.1,11.6,0.1,18.7c-3.8-4.9-4.5-9.8-7.6-13.4
			c-7.3-8.3-17.1-9.8-27.2-9.9c-21-0.1-42,0.1-63-0.2c-4.8-0.1-5.8,1.5-5.7,5.9c0.2,35.3,0.1,70.7,0.1,106c0,6-0.9,12,4.5,16.8
			c2,1.7,3.2,3.2,6.1,3.2c64.2-0.1,128.3-0.1,192.5,0c3.5,0,4.6-0.9,4.5-4.5c-0.2-14.2-0.1-28.3,0-42.5c0-4.9,0-9.6-3-13.8
			c-0.8-1.2-2.2-3.6,0.3-4C324.3,635.6,323.7,633.6,324.6,631.3z M434.8,502.5c6.1-0.5,6.2-0.6,5.9-3.5c-1.4-14.6-0.4-29.3-0.6-43.9
			c-0.1-4.2,0.8-6.9,5.9-5.3c3.1,0.9,4.1-0.4,4-3.6c-0.2-5.5-0.1-11-0.1-16.5c0-6.9-0.5-7.5-7.5-7.8c-1.2-0.1-2.3,0.1-3.5,0.1
			c-13,0.1-26,0.3-39,0.4c-1.3,0-3.4,1-3.6-1.3c-0.2-2.5-2.2-2.3-3.5-2.7c-8.2-2.1-16.5-3.8-24.7-5.9c-2.4-0.6-3.6-0.3-4.4,2.2
			c-1.1,3.1-2.9,6-4.2,9c-1,2.5-2.3,2.3-4.2,0.9c-4.5-3.2-9-6.3-13.6-9.3c-3.1-2-6.6-2.8-9.2,0.6c-7.4,9.5-16.2,17.2-27,22.5
			c-2.6,1.2-2.6,2.4-1,4.4c3.2,4.1,6.1,8.4,8.1,13.2c1.8,4.2,3.8,8.3,7.8,10.7c2.3,1.4,0.5,2.1-0.2,2.8c-4.7,5.2-9.6,10.3-15.4,14.2
			c-2.2,1.5-2.7,2.8-1.4,5.2c3.3,6,5.6,12.4,6.9,19.2c0.7,3.5,2.7,6.6,5.4,8c2.8,1.5,2.7,3.3,2.6,5.5c-0.1,9.7-0.2,19.3-0.4,29
			c-0.1,4.4,2.5,8.1,5.9,8.3c23.6,1.7,46.9,0.9,69-8.8c3.2-1.4,5.9-1.3,9,0.1c12.8,5.6,26.4,7.8,40.3,8.8c2.4,0.2,4.4,0.4,4.9-3.1
			c1.1-7.1,3.5-13.9,6.8-20.3c1.7-3.4,0.6-4-2.7-4.7c-7.1-1.4-14.3-1.6-22.7-2.1c6.2-4.7,9.9-9.8,14.4-14.3c1.8-1.8,2.1-3-0.2-4.7
			C440.1,507.8,437.8,505.3,434.8,502.5z M645.5,446.2c-2.2,1.5-3.1,2.1-4.1,2.7c-13.6,8.3-28.4,13.7-43.8,17.7
			c-3,0.8-4.1,1.4-1.9,4.4c4.2,5.9,6.9,12.5,8.9,19.4c0.5,1.8,0.7,3.8,3,4.1c2.8,0.4,2.7,2.3,2.7,4.4c0,6.8,0,13.7,0,20.5
			c0,8.9,0,9-8.8,7.7c-3-0.4-3.8,0.5-3.7,3.3c0.2,5.8,0,11.7,0,17.5c0,6.5,1,7.6,7.6,8c1.5,0.1,3-0.1,4.5-0.1
			c12-0.6,24-0.9,35.9-0.8c30.8,0.3,61.6-0.8,92.4,1c3.4,0.2,4.4-0.8,4.3-4.1c-0.2-5.5-0.1-11-0.1-16.5c0-6.4-1.8-8.2-8.3-8.1
			c-0.5,0-1,0.1-1.5,0.3c-2,0.4-2.8-0.3-2.7-2.3c0.1-9,0.2-18,0.4-27c0-1.1-0.2-3.1,0.9-3.1c4.3,0.1,3.8-3.5,4.9-5.8
			c2.6-5.6,4.8-11.4,8.6-16.3c2.9-3.7,1.8-5-2.2-6.3c-10.3-3.2-20.9-5.6-30.5-10.9c-4.9-2.7-9.6-5.4-14-10c13.2,0,25.6-0.5,37.8,0.9
			c4.4,0.5,5.4-1,5.2-5.1c-0.3-5.8-0.4-11.7,0-17.5c0.3-4-1.3-5.8-5-6.2c-1.5-0.2-3-0.4-4.5-0.3c-16.7,0.1-33.3,0.5-50,0.4
			c-26.3-0.1-52.6,0.8-78.9-0.8c-2.7-0.2-3.1,0.9-3.1,3.1c0.1,6.2,0,12.3,0,18.5c0,6.1,0.8,7.1,6.8,7.8c1.3,0.2,2.7,0,4-0.1
			C621.8,446,632.9,446.1,645.5,446.2z M582.4,518.5c0-11-0.3-22,0.1-33c0.3-7.6-0.5-8.9-8.4-8.8c-8.3,0.1-16.7,0.2-25,0.3
			c-10,0-10,0-9-10.3c0.2-2.2,1-2.9,3-2.9c16.5,0.4,33-0.9,49.4,0.9c2.6,0.3,3.6-0.1,3.5-3c-0.2-6.3-0.1-12.7-0.1-19
			c0-7.3-2-9.4-9.4-8.6c-10.8,1.2-21.6,0.8-32.4,0.7c-4.6,0-10.6,2.2-13.3-1c-2.6-3.1-0.8-8.9,0.1-13.5c0.5-2.6,0-4.1-3.1-4.2
			c-9.5-0.4-19-0.9-28.4-1.5c-3.2-0.2-3.8,1.2-3.2,3.8c0.9,4.1,0.6,8.3,0.9,12.4c0.2,3.4-1,4.2-4.2,4.1c-15.1-0.5-30.3,0.8-45.4-1.1
			c-3.2-0.4-4.5,0.4-4.3,3.9c0.3,6.3,0.1,12.7,0.1,19c0,5.8,2.2,8.3,8.2,7.7c12.1-1.2,24.3-0.5,36.4-0.7c9.5-0.1,9.4,0,9.3,9.5
			c0,2.8-0.8,3.7-3.7,3.7c-9.2-0.2-18.3-0.1-27.5-0.2c-3.1,0-7.2-1.6-9.1-0.1c-2.4,1.8,0.2,5.8,0.1,8.9c-0.3,21.8,0.8,43.6-0.7,65.4
			c-0.2,3.1,3.1,7.6,5.8,7.5c8,0,16-0.3,24-0.3c2.2,0,3.6-0.6,3.3-3.1c-0.4-3.2,1.6-3.3,4-3.3c14.5,0.1,29,0.1,43.5,0
			c3.3,0,5.4,0.6,6.4,3.9c0.6,1.9,1.7,3,4,2.9c7.3-0.3,14.6-0.4,22-0.3c3,0,4.2-0.8,3.8-4C581.3,542.5,582.5,530.5,582.4,518.5z"/>
		<path class="st8" d="M499.1,274.1c22.8-4,45.4-3.2,67.6,3.8c0.9,1.1,2,1.3,3.3,1c0,0,0,0,0,0c0.6,0.6,1,1.4,1.7,1.7
			c16.9,7.4,31,18.5,42.4,32.9c14.4,18.1,21.9,38.8,23.7,61.7c-18,0.7-36,0.5-54,0.1c0-0.2,0-0.4,0.1-0.6
			c5.8-11.4,9.4-23.3,9.3-36.3c-0.4-42.1-40.6-73.7-81.5-63.8c-44.9,10.8-65.6,60.7-41.6,100.1c-0.1,0.2-0.1,0.5-0.1,0.7
			c-18,0.2-36,0.5-54-0.2c0-2.5-0.3-5,0.1-7.5c6.2-37.8,25.6-66.4,59.8-84.5c6.2-3.3,13.1-4.7,19.1-8.3c0,0-0.1,0-0.1,0
			C496.5,275.2,497.9,275.3,499.1,274.1z"/>
		<path class="st9" d="M495,275c-6,3.6-12.9,5.1-19.1,8.3c-34.2,18.1-53.6,46.7-59.8,84.5c-0.4,2.4-0.1,5-0.1,7.5
			c-11.9,0.2-23.9,0.4-35.8,0.6c0.5-5.8,3.3-10.8,5.8-15.8c21.7-44.4,56.6-72.6,104.6-84.6C492,275.1,493.6,275.2,495,275z"/>
		<path class="st9" d="M637.8,375.3c-1.8-22.9-9.3-43.6-23.7-61.7c-11.5-14.4-25.5-25.5-42.4-32.9c-0.7-0.3-1.1-1.1-1.7-1.7
			c11.7,2.5,22.2,7.9,32.3,13.9c30.5,18.1,52.2,43.9,65.4,76.9c0.8,1.9,2.1,3.9,1.3,6.2C658.6,375.1,648.2,376.4,637.8,375.3z"/>
		<path class="st7" d="M470.1,375.5c0-0.2,0-0.5,0.1-0.7c1.7,0.1,3.3,0.2,5,0.2c36.1,0,72.1,0,108.2,0c0,0.2,0,0.4,0,0.6
			c-1,0.1-2,0.3-3,0.3c-35.6,0-71.2,0-106.9,0C472.3,375.9,471.2,375.6,470.1,375.5z"/>
		<path class="st9" d="M583.3,375.6c0-0.2,0-0.4,0-0.6c0.2-0.1,0.4-0.1,0.7-0.2c0,0.2-0.1,0.4-0.1,0.6c0,0-0.2,0.2-0.2,0.2
			L583.3,375.6z"/>
		<path class="st10" d="M507.3,769.3c16.6,0,32.7,0,48.7,0c0.1,0.4,0.2,0.7,0.1,0.7c-7.1,6-5.5,12.8-2.7,20.4
			c5.9,16.6,11,33.5,16.4,50.2c0.4,1.3,0.9,2.5,1.6,4.5c7.4-19.2,14.5-37.7,21.6-56.2c2.1-5.6,4.4-11.1,6.4-16.8
			c0.9-2.5,2.2-3.3,4.8-3.2c6,0.2,13.1-1.7,17.6,0.9c4.3,2.5,4.3,10.3,6.2,15.7c6.5,19.4,13,38.7,19.4,58.1c2.1-0.1,1.9-1.9,2.3-2.9
			c7.1-18.4,13.9-37,21.3-55.4c2.1-5.2,2-9.1-2-12.8c-0.8-0.8-1.4-1.8-2.4-3.2c13.5,0,26.5,0,40.1,0c-4.5,11.2-9,22.3-13.5,33.3
			c-11.4,28.2-22.9,56.4-34.1,84.6c-1.4,3.6-3,5.3-7.2,5c-5.8-0.4-11.7-0.4-17.5,0c-3.9,0.2-5.4-1.3-6.6-4.8
			c-6.1-17.6-12.5-35.1-18.8-52.6c-0.5-1.3-1-2.6-2.1-5.1c-2.9,7.5-5.4,13.9-7.9,20.4c-4.9,12.7-9.9,25.4-14.6,38.2
			c-1.1,3-2.6,4-5.8,3.9c-6.8-0.2-13.7-0.2-20.5,0c-2.5,0.1-3.8-0.6-4.8-3.1c-15-39.1-30.2-78.1-45.3-117.2
			C507.8,771.2,507.6,770.4,507.3,769.3z"/>
		<path class="st10" d="M473.8,844.7c10.9,15.9,21.8,31.8,33.1,48.2c-18.5,0-36.3,0-54.4,0c0.3-0.7,0.4-1.1,0.7-1.5
			c5.9-7.9,5.9-7.9,0.5-15.9c-4.8-7.2-9.8-14.2-14.3-21.6c-2.3-3.7-4.8-5.1-9.2-5C420,849.3,420,849,420,859c0,1.2,0,2.3,0,3.5
			c0,5.5,0.5,11.1-0.1,16.5c-0.8,6.3,5.1,8.9,7.1,14c-16.7,0-33.1,0-49.5,0c0-0.5-0.1-0.9,0-1.1c5.7-4.8,6.1-11.1,6-18
			c-0.3-28.1-0.1-56.3-0.1-84.4c0-7.3,1.3-15-7.3-19.3c2.1-1.7,3.6-1.2,5-1.2c24.8,0,49.6,0,74.5,0c7,0,13.9,0.8,20.7,2.8
			c19.7,5.6,26.2,20.2,25.2,37.9C500.6,826,494.8,837.8,473.8,844.7z M435.8,825.1C435.8,825.1,435.8,825,435.8,825.1
			c4.5-0.1,9,0.2,13.5-0.1c8.6-0.6,14.1-5.7,14.7-13.4c0.7-8.9-3.3-14.4-12.7-15.9c-9.7-1.6-19.6-0.3-29.4-0.6
			c-2.1-0.1-1.8,1.5-1.8,2.8c0,8.2,0.1,16.3,0,24.5c0,2.2,0.7,2.9,2.9,2.9C427.1,825,431.5,825.1,435.8,825.1z"/>
		<path class="st10" d="M297.6,895.2c-11.9,0.2-23.6-1.1-34.9-5.1c-17.9-6.4-29.5-18.8-34.2-37.3c-3.7-14.8-3.8-29.7,0-44.5
			c5.2-20.3,18.8-32.6,38.7-37.7c20.2-5.2,40.6-5.3,60.6,0.6c18.8,5.6,31.2,17.9,36.2,37.1c3.9,14.8,4.1,29.7,0.5,44.5
			c-5.6,23.5-22.6,37.8-48.1,41.3C310.2,894.9,303.9,895.2,297.6,895.2z M328.4,829c-0.1-2-0.1-4-0.4-6
			c-1.7-12.6-6.2-23.3-19.4-27.6c-8.3-2.7-16.7-2.6-25,0c-7.4,2.3-12.6,7.2-15.6,14.4c-4.4,10.8-4.6,22-2.3,33.3
			c3.2,15.9,11.6,23.6,27.6,25.6c17,2.1,29.4-5.8,33.5-21.4C328.2,841.3,328.5,835.1,328.4,829z"/>
		<path class="st10" d="M115,821.1c0,9,0,17.1,0,25.1c0,10,0.2,20-0.1,30c-0.1,5.1,0.6,9.5,4.6,13c1,0.8,1.6,2,2.7,3.6
			c-14.6,0-28.6,0-42.6,0c0-0.4-0.1-0.9,0.1-1c5.6-5.2,6.5-11.6,6.4-18.9c-0.3-28.7-0.3-57.3,0-86c0-5.4-0.7-10.1-4.6-14.1
			c-0.9-0.9-1.5-2.1-2.7-3.8c13,0,25.3,0,37.5,0c2.4,0,3.3,2,4.6,3.5c19.3,21.6,38.5,43.3,57.7,65c0.5,0.6,1.1,1.2,2.3,2.6
			c0-6.6,0-12.2,0-17.7c0-12.3-0.2-24.7,0.1-37c0.1-5-0.8-9.1-4.4-12.6c-0.9-0.9-1.6-2-2.7-3.5c14.7,0,28.7,0,42.7,0
			c-0.1,0.6,0,1-0.1,1.1c-6.8,5.7-6.6,13.3-6.6,21.3c0.2,32,0,64,0.2,96c0,4.8-1.4,5.8-5.8,5.6c-6.1-0.4-12.3-0.2-18.5,0
			c-2.9,0.1-4.9-0.9-6.9-3c-20.6-22.5-41.2-44.9-61.9-67.3C116.6,822.5,116.1,822.2,115,821.1z"/>
		<path class="st10" d="M789.1,893.6c2.1-2.7,3.2-4.5,4.7-6.1c2.4-2.5,2.2-4.8,1.2-8.1c-2.1-6.9-5.9-8.8-13.1-8.5
			c-15,0.7-30,0.3-45,0.1c-3.8-0.1-5.3,1.5-7.2,4.5c-3.6,5.7-4.1,10.5,1.3,15.1c0.5,0.4,0.7,1.1,1.3,2.1c-14.9,0-29.4,0-44.3,0
			c6.2-12.9,12.2-25.6,18.3-38.3c11.6-24.3,23.2-48.6,35-72.8c1.9-3.8-0.1-6.3-1.3-9.2c-1-2.3-1.3-3.5,2-3.5c12,0.1,24,0.2,36,0
			c2.9,0,3.7,1.6,4.6,3.6c13.9,28.6,27.7,57.1,41.6,85.6c5.2,10.8,10.5,21.5,15.8,32.2c1,2.1,1.4,3.3-1.7,3.3
			C822.4,893.6,806.4,893.6,789.1,893.6z M741.2,847.6c0.8,0.3,1.1,0.4,1.4,0.4c10.3,0,20.6,0,30.9,0c8,0,8,0,4.6-7.4
			c-5.4-11.8-10.9-23.6-16.7-36.1C754.4,819.5,747.8,833.5,741.2,847.6z"/>
		<path class="st10" d="M922.1,893c-16.7,0-33.5,0-50.3,0c0-0.4-0.2-0.9,0-1c6.2-5.3,6.2-12.3,6.8-19.8c1.1-14.3-2.9-26.1-11.3-37.8
			c-15-20.9-28.6-42.9-43.1-64.9c17.8,0,35,0,52.3,0c0,0.2,0.1,0.4,0.1,0.5c-6.1,6.8-6.1,6.8-1.2,14.7c8.5,13.7,17,27.4,25.9,41.7
			c4.4-6.9,8.5-13.2,12.5-19.6c5.6-8.9,11-17.9,16.9-26.5c2.4-3.5,2.5-5.7-1.3-7.8c-1.1-0.6-2-1.7-3.4-3.1c15,0,29.3,0,43.7,0
			c0.4,1.6-1,2.5-1.8,3.7c-16.3,24.9-32.7,49.8-49.1,74.6c-1.9,2.9-3,5.7-2.8,9.3c0.3,5,0.2,10,0,15c-0.3,7.6-0.8,15.2,7.3,20
			C922.8,892.3,922.5,892.6,922.1,893z"/>
		<path class="st0" d="M908.4,801.7c-4.7-7.6-9-14.6-13.4-21.6c-0.7-1.2-0.8-2,0.3-3c3.7-3.3,7.4-6.6,11-10.1
			c1.3-1.3,2.2-0.9,3.3,0.1c3.9,3.3,7.8,6.7,11.8,9.9c1.3,1,1.5,1.9,0.6,3.3C917.5,787.3,913.1,794.3,908.4,801.7z M912.7,778.9
			c-1.5,0.3-2.8,1.1-2.6,2.6c0.3,1.7,1.1,3.9,3,4c1.3,0.1,2.3-1.9,2.6-3.3C916,780.3,914.2,779.6,912.7,778.9z"/>
		<path class="st0" d="M440.6,869.1c3.1,4.5,5.7,8.5,8.4,12.3c1.6,2.3-0.2,3.4-1.5,4.5c-1.7,1.5-2-0.8-2.8-1.5
			C440.1,880.7,439.3,875.7,440.6,869.1z"/>
		<path class="st0" d="M236.3,778.2c-1.9,2.7-3.7,5.4-5.9,8.5c-0.8-4.9,2.8-6.8,4.9-9.4C235.6,777.7,235.9,777.9,236.3,778.2z"/>
		<path class="st9" d="M499.1,274.1c-1.2,1.2-2.7,1.1-4.2,0.9C496.2,273.8,497.7,274,499.1,274.1z"/>
		<path class="st9" d="M570,279c-1.3,0.3-2.4,0.1-3.3-1C567.9,278,569.2,277.7,570,279z"/>
		<path class="st11" d="M324.6,631.3c-1,2.3-0.4,4.3-3.4,4.8c-2.5,0.4-1.1,2.8-0.3,4c3,4.2,3,9,3,13.8c-0.1,14.2-0.1,28.3,0,42.5
			c0,3.5-1,4.5-4.5,4.5c-64.2-0.1-128.3-0.1-192.5,0c-2.8,0-4.1-1.4-6.1-3.2c-5.4-4.8-4.5-10.8-4.5-16.8c0-35.3,0.1-70.7-0.1-106
			c0-4.4,0.9-6,5.7-5.9c21,0.3,42,0,63,0.2c10.2,0.1,19.9,1.6,27.2,9.9c3.2,3.6,3.9,8.4,7.6,13.4c0-7.1,0.2-12.9-0.1-18.7
			c-0.1-3.3,0.6-4.7,4.3-4.7c30.7,0.1,61.3,0.1,92,0c3.4,0,4.5,1.2,4.4,4.5c-0.2-3.8,1.6-4.5,4.8-4.5c30.5,0.1,61,0.1,91.5,0
			c2.9,0,5.1,0.2,4.5,4.3c0.1-3.4,1.6-4.3,4.7-4.3c21.8,0.1,43.7-0.1,65.5,0.2c11.1,0.1,21.6,2.4,28.1,12.8c1.8,3,2.4,6.6,5.1,9.7
			c1.7-5.3,3.7-10.1,7.7-13.7c5.5-5,11.9-8.2,19.3-8.5c16.1-0.6,32.3-1.1,48.4,0.3c11.5,1,20.2,6.3,24.1,17.8
			c0.3,0.8,0.8,1.4,1.6,2.7c1.1-2.5,1.8-4.6,2.9-6.4c5.3-9,13.5-14,23.7-14.4c15.8-0.7,31.7-0.9,47.5,0.1c11.9,0.8,21.4,6,25.4,18.3
			c0.1,0.4,0.6,0.7,1.5,1.9c0-6.2,0.1-11.6-0.1-16.9c-0.1-2.8,0.8-3.7,3.7-3.7c31,0.1,62,0.1,93,0c3.3,0,3.7,1.7,4,4.4
			c-0.3-3.7,1.6-4.4,4.6-4.3c21.8,0.1,43.7,0,65.5,0.1c6.2,0,12.2,1.1,18,3.7c3.4,1.6,6.7,3.7,8.4,6.8c4.4,7.9,9.3,15.6,9,25.4
			c-0.4,13-0.7,26,0,39c0.8,13.8-10.9,24.7-23.3,26.9c-6.5,1.1-13,0.6-19.4,0.6c-3.3,0-4.4,0.9-4.3,4.2c0.2,7,0,14,0.1,21
			c0.1,2.9-0.5,4.2-3.8,4.1c-14.8-0.2-29.7-0.1-44.5,0c-2.3,0-4.1-0.6-4.7-2.8c-1-3.5-5.3-4.9-5.4-9.6
			c-7.9,10.5-18.6,12.5-30.2,12.3c-11.3-0.2-22.7,0-34,0c-12.9-0.1-22.7-5.6-29.2-16.7c-0.8-1.3-1.6-2.6-2.4-3.8
			c-0.4-0.5-0.8-1-1.5-1.9c-1.1,3-1.8,5.8-3.1,8.3c-5.3,10.2-14.7,13.8-25.3,14.1c-14.7,0.4-29.3,0.5-44,0
			c-10.5-0.3-18.5-5.8-24.1-14.8c-2.4-3.9-5.1-4.1-7.1-0.1c-5.6,10.8-15.1,14.6-26.4,14.9c-14,0.3-28,0.3-42,0
			c-10.3-0.2-18.3-5.3-24.4-13.5c-0.8-1.1-1.5-2.2-2.2-3.4c-0.7-1.2-1.7-1.5-3-0.9c-1.2,0.6-0.8,1.7-0.6,2.6
			c0.7,3.8,1.2,7.6,2.2,11.3c0.9,3.2,0,4.2-3.2,4.1c-6.8-0.2-13.7-0.1-20.5-0.1c-24.5,0-49-0.1-73.5,0.1c-3.6,0-5.2-1.5-7.6-4
			c-4.5-4.8-3.8-10.1-3.9-15.5c0-13.3-0.3-26.7,0.1-40c0.1-4.8-1.5-6.1-5.9-5.6c-3.1,0.3-6.3,0.3-9.5,0c-3.9-0.4-5.1,1-5.1,5
			c0.2,18-0.1,36,0.2,54c0.1,5.3-1.6,6.3-6.5,6.2c-13.7-0.3-27.3-0.2-41,0c-3.1,0-4.3-1.6-6.3-3.6c-4.9-4.7-4.1-10.3-4.1-16
			c0-13.3-0.2-26.7,0.1-40c0.1-4.8-1.5-6.2-5.9-5.6c-1.6,0.2-3.3,0-5,0C329.5,636,325.8,636.5,324.6,631.3z M164.9,638.9
			c1.8,1.7,1.7,3.7,2,5.4c2.1,12.8,4.2,25.6,6.2,38.4c0.4,2.7,1.4,3.6,4.1,3.6c11.2-0.1,22.3-0.1,33.5,0c2.6,0,3.4-0.5,2.8-3.4
			c-2.3-11.4-4.8-22.8-6.3-34.3c-1-8.1-3.7-13.8-12.4-15c-0.6-0.1-1.3-0.4-1.9-0.7c-0.7-0.3-1.7-0.6-1.5-1.7c0.1-1.1,1.2-1,2-1.1
			c3.7-0.3,7.1-1.7,10.3-3.5c5.1-2.8,8-6.5,7.5-12.8c-0.5-6.5-0.1-13-0.1-19.5c0-6-2.6-10.6-7.4-13.9c-4.5-3.1-9.7-4.3-15.1-4.4
			c-20.5-0.1-41,0-61.5-0.1c-2.9,0-4.1,0.5-4.1,3.8c0.1,34.1,0.1,68.3,0,102.4c0,2.9,0.6,4.1,3.8,4.1c11-0.2,22-0.2,33,0
			c3.3,0.1,4.3-1,4.2-4.2c-0.2-12.5-0.1-25,0-37.5C163.9,642.8,163.3,640.9,164.9,638.9z M469.2,638.5c2.8,1.7,2.6,3.3,2.8,4.7
			c2.1,12.8,4.1,25.6,6.2,38.4c0.4,2.3,0.4,4.8,4.3,4.7c11-0.3,22-0.2,33-0.1c2.8,0,3.9-0.7,3.3-3.7c-2.2-10.9-4.9-21.8-6.1-32.8
			c-1-8.9-3.9-15-13.4-16.5c-0.2,0-0.3-0.1-0.5-0.1c-0.8-0.2-1.7-0.6-1.7-1.5c0-1.4,1.1-1.4,2.1-1.5c3.7-0.5,7.1-1.9,10.2-3.7
			c4.5-2.6,7.2-5.9,6.9-11.6c-0.5-7-0.2-14-0.1-21c0.1-4.5-1.7-8-4.8-11.1c-4.7-4.6-10.5-6.4-16.8-6.4c-20.8-0.2-41.7,0-62.5-0.1
			c-2.7,0-3.8,0.6-3.8,3.6c0.1,34.3,0.1,68.7,0,103c0,2.9,1,3.7,3.8,3.7c11-0.1,22-0.2,33,0c3.3,0.1,4.2-1,4.2-4.2
			c-0.2-12.2-0.1-24.3-0.1-36.5C469.2,643.4,469.2,641.4,469.2,638.5z M531.8,630.4c0,11.2,0,22.3,0,33.5c0,12.1,9.5,22.1,21.5,22.2
			c14.7,0.2,29.3,0.2,44,0c14-0.2,21.4-8.1,21.4-22.1c0-21.8-0.4-43.6,0.1-65.4c0.4-16.5-10.3-22-21.1-22.4
			c-15.1-0.5-30.3-0.5-45.5,0c-12.2,0.3-20.4,9.5-20.5,21.7C531.8,608.7,531.8,619.6,531.8,630.4z M820.6,623.8
			c0-14.5-0.1-29,0-43.5c0-3-0.4-4.5-4-4.4c-10.8,0.3-21.7,0.2-32.5,0c-3.4-0.1-4.1,1.1-4.1,4.3c0.1,13.7,0.1,27.3,0.1,41
			c0,10.7-0.1,21.3,0.1,32c0.1,3.3-1.3,4-4.1,3.7c-3.4-0.4-2-3-2-4.6c-0.1-23.8-0.2-47.6,0-71.5c0-4.1-1.2-4.9-5-4.8
			c-10.2,0.3-20.3,0.3-30.5,0c-4-0.1-4.9,1.2-4.9,5c0.2,27.7,0.1,55.3,0.1,83c0,11.7,9.9,22,21.7,22.2c14.8,0.3,29.7,0.3,44.5-0.1
			c13.2-0.3,20.5-8.1,20.6-21.3C820.6,651.1,820.6,637.4,820.6,623.8z M226.3,631c0,17,0,34,0,51c0,2.8,0.4,4.2,3.7,4.2
			c26.5-0.1,53-0.1,79.5,0c2.8,0,3.8-0.8,3.7-3.7c-0.1-12.7-0.1-25.3,0-38c0-2.9-1.1-3.6-3.8-3.6c-8.5,0.1-17,0.1-25.5,0
			c-11,0-11,0-11.1,11.2c0,0.3,0,0.7,0,1c0.2,2.3-0.2,3.8-3.2,3.7c-2.8,0-2.8-1.6-2.8-3.6c0-5.2,0.2-10.3-0.1-15.5
			c-0.1-3.1,0.9-4,4-3.9c9.3,0.2,18.7,0.1,28,0c1.8,0,4.1,0.8,4.2-2.6c0.1-3.3-1.8-3.3-4.1-3.3c-9.3,0.1-18.7-0.1-28,0.1
			c-3,0.1-4.2-0.7-4-3.9c0.3-5.2,0.1-10.3,0-15.5c0-2,0.4-3.1,2.7-3.1c2.3,0,3.4,0.8,3.2,3.2c-0.1,2.7,0.1,5.3-0.1,8
			c-0.2,3.1,0.6,4.4,4.1,4.4c10.8-0.2,21.7-0.2,32.5,0c3.2,0.1,3.9-1.1,3.9-4.1c-0.1-12.2-0.2-24.3,0-36.5c0.1-3.7-0.9-4.8-4.7-4.8
			c-25.8,0.2-51.7,0.2-77.5,0c-4.2,0-4.9,1.4-4.9,5.1C226.4,597.7,226.3,614.3,226.3,631z M632.8,630.3c0,11.5,0,23,0,34.5
			c0,0.3,0,0.7,0,1c0.2,10.1,9,20,19.1,20.2c16.3,0.4,32.6,0.5,48.9-0.1c11.2-0.4,18.3-8.1,18.6-19c0.3-9.7,0-19.3,0.1-29
			c0-2.7-0.7-3.8-3.7-3.8c-11.2,0.1-22.3,0.1-33.5,0c-2.7,0-3.5,0.9-3.4,3.5c0.1,5.3,0,10.7,0.1,16c0,2.2-0.4,3.4-3,3.4
			c-2.3,0-3.2-0.6-3.2-3.1c0.1-15,0.1-30,0-45c0-2.5,0.9-3.1,3.2-3.1c2.5,0,3.1,1,3,3.3c-0.1,4.7,0.1,9.3-0.1,14
			c-0.1,2.9,0.6,4.1,3.8,4c11-0.2,22-0.2,33,0c3.3,0.1,3.8-1.2,3.8-4.1c-0.1-8.2-0.1-16.3-0.1-24.5c0-14.3-6.6-21.8-20.9-22.3
			c-15.3-0.5-30.6-0.4-45.9-0.1c-11.9,0.3-19.8,9.2-19.9,21.1C632.8,608.3,632.8,619.3,632.8,630.3z M870,576
			c-10.5,0-21,0.1-31.5-0.1c-2.7,0-3.8,0.6-3.7,3.5c0.1,34.3,0.1,68.7,0,103c0,2.7,0.6,3.8,3.6,3.8c11.2-0.2,22.3-0.2,33.5,0
			c3.3,0.1,3.8-1.3,3.8-4.1c-0.1-7.2,0.1-14.3-0.1-21.5c-0.1-2.8,0.9-3.7,3.7-3.7c7.3,0.2,14.7,0.2,22,0
			c11.7-0.3,21.1-8.7,21.3-19.6c0.3-14,0.3-28,0-42c-0.2-10.6-5.6-16.3-16.1-18.6c-2.8-0.6-5.6-0.8-8.4-0.8
			C888.7,576,879.3,576,870,576z M371,576c-13.2,0-26.3,0-39.5,0c-2.1,0-4.4-0.5-4.3,3c0.1,13,0,26,0.1,39c0,1.5,0,3.2,2.2,3.1
			c4.8-0.1,10.2,1.1,14.2-0.8c2.8-1.3,0.6-7.1,1-10.8c0.1-0.7,0-1.3,0.1-2c0.1-1.5,1.2-1.8,2.4-1.8c1.3,0,2.8-0.1,3,1.8
			c0.1,1.3,0.1,2.7,0.1,4c0,23.3,0.1,46.6-0.1,69.9c0,3.7,0.9,4.9,4.7,4.8c10.3-0.3,20.6-0.3,31,0c4.2,0.1,5.2-1.1,5.2-5.2
			c-0.2-23.8-0.1-47.6-0.1-71.4c0-2.1-0.2-3.9,2.9-3.9c2.9,0,3,1.5,3.2,3.7c0.2,3.9-1.9,9.1,1.2,11.2c2.8,1.9,7.7,0.4,11.7,0.6
			c3.2,0.2,4.3-0.8,4.3-4.2c-0.2-12.3-0.2-24.6,0-37c0.1-3.3-1-4.2-4.2-4.2C397,576.1,384,576,371,576z M219.6,632.8
			c-2.1,3.2-6.8,4.1-5.7,7.4c2.8,8.3,2.9,17.1,5.7,25.3C219.6,655,219.6,644.4,219.6,632.8z M524.8,634c-1.6,2.6-6.8,2.8-5.6,6.4
			c2.7,7.9,3,16.2,5.6,24.9C524.8,654.4,524.8,644.2,524.8,634z"/>
		<path class="st11" d="M434.8,502.5c3,2.8,5.3,5.2,8,7.2c2.3,1.7,2,2.9,0.2,4.7c-4.5,4.5-8.2,9.7-14.4,14.3
			c8.4,0.5,15.6,0.8,22.7,2.1c3.3,0.6,4.4,1.2,2.7,4.7c-3.2,6.4-5.6,13.2-6.8,20.3c-0.6,3.5-2.6,3.3-4.9,3.1
			c-13.9-0.9-27.4-3.2-40.3-8.8c-3.1-1.4-5.9-1.5-9-0.1c-22.1,9.7-45.4,10.5-69,8.8c-3.5-0.2-6-4-5.9-8.3c0.1-9.7,0.3-19.3,0.4-29
			c0-2.2,0.1-4-2.6-5.5c-2.7-1.5-4.8-4.5-5.4-8c-1.3-6.7-3.6-13.2-6.9-19.2c-1.4-2.4-0.8-3.7,1.4-5.2c5.8-3.9,10.7-9,15.4-14.2
			c0.7-0.7,2.5-1.4,0.2-2.8c-4-2.4-6-6.5-7.8-10.7c-2-4.8-4.9-9.1-8.1-13.2c-1.6-2.1-1.6-3.2,1-4.4c10.8-5.2,19.6-13,27-22.5
			c2.6-3.3,6.1-2.6,9.2-0.6c4.6,3,9.1,6.1,13.6,9.3c1.9,1.3,3.1,1.5,4.2-0.9c1.3-3.1,3.1-5.9,4.2-9c0.9-2.5,2-2.8,4.4-2.2
			c8.2,2.1,16.5,3.9,24.7,5.9c1.4,0.3,3.3,0.2,3.5,2.7c0.2,2.3,2.4,1.3,3.6,1.3c13-0.1,26-0.2,39-0.4c1.2,0,2.3-0.2,3.5-0.1
			c7,0.3,7.5,0.9,7.5,7.8c0,5.5-0.2,11,0.1,16.5c0.1,3.1-0.9,4.5-4,3.6c-5.1-1.6-6,1.1-5.9,5.3c0.3,14.6-0.7,29.3,0.6,43.9
			C441,502,440.9,502,434.8,502.5z M384.9,503c3.5-6.6,7.8-9.7,15-9.1c8.9,0.8,18,0.1,27,0.2c2.8,0,4-0.4,4-3.8
			c-0.3-11.8-0.3-23.7,0-35.5c0.1-4.1-1.1-4.9-5-4.8c-18.2,0.3-36.3,0.2-54.5,0.1c-1.1,0-3.5,1.2-3-1.7c0.6-3.5,5.7-7.4,9.3-7.4
			c17.3,0.3,34.6-0.4,51.9,0.5c10.8,0.6,10.7,0.3,10.7-10.5c0-3.3-1-4.2-4.3-4c-16.6,1.3-33.3,0.4-49.9,0.7c-3.1,0.1-5.1-0.2-2.9-4
			c0.5-0.9,1.7-2.5,0.2-2.9c-4.8-1.2-9.7-2-14.6-2.8c-0.4-0.1-1.2,1.1-1.5,1.8c-4.5,10-10.5,18.9-18.1,26.7c-1.6,1.6-1.5,2.7,0.2,4
			c1.9,1.4,3.5,3.1,5.4,4.4c5.2,3.7,7.6,8.4,6.7,14.9c-0.5,4.1-0.1,8.3-0.1,12.5c0,3.6-1.2,8.3,0.5,10.6c2.2,2.8,7.2,0.5,10.9,1.1
			c0.3,0,0.5,0.3,0.7,0.5c0.1,1.4-1.1,2-1.8,2.8c-5.8,6.9-13.2,11.7-21.4,15c-3.1,1.2-3.8,2.1-1.8,5.1c5.7,8.4,5.5,8.5,14.4,3.4
			c0.6-0.3,1.2-0.6,1.7-1c1.2-0.7,2.1-0.6,3.1,0.4c3.3,3.6,6.7,7.2,10.3,11c-10.1,3.1-20,5.2-30.7,5.7c1.5,3.4,3.5,6.4,4.3,9.7
			c1,4.3,3.5,4.5,7,3.8c10.3-2,20.4-4.7,30.1-8.8c3.1-1.3,5.8-1.4,9,0.1c10.8,5,22.3,7.4,34.1,8.8c4.2,0.5,7.1,0.1,7.5-5
			c0.2-2.4,1.3-4.8,2.3-7.1c1.5-3.3,0.5-3.9-2.9-4.1c-9.2-0.4-18.5-1.2-27.6-3.6c0.8-2,2.4-2.7,3.7-3.7c5.9-4.4,11.2-9.4,16.1-14.9
			c0.8-0.9,2.7-2,1.4-3.2c-3-2.6-5-6.5-10-6.4C410.1,503.2,397.8,503,384.9,503z M323.8,496.3c0,14.5-0.2,28.3,0.1,42
			c0.1,4.2-2.7,10,0.9,12.2c3.3,2,8.7,0.4,13.2,0.5c2.1,0.1,2.9-0.6,2.8-2.9c-1.5-20.9-0.3-41.9-0.7-62.8c-0.1-3.7,0.8-6.6,3.1-9.6
			c8-10.6,7.8-10.6-3-18.3c-2.3-1.7-3.2-1.1-4.6,1c-6.9,10.2-14.9,19.6-24.6,27.3c-1.2,0.9-2.2,1.7-1.4,3.7c2.1,5,3.9,10.2,6.1,15.8
			C318.3,502.3,320.8,499.6,323.8,496.3z M350.2,428.7c-0.8-0.8-1.4-1.5-2.2-2c-2.7-1.9-5.6-3.6-8.2-5.6c-2.3-1.7-3.6-1.2-5.3,0.8
			c-4.3,5-8.9,9.8-14.4,13.8c-2.9,2.1-7.6,3.7-8.5,6.4c-1,3.2,3.5,6.3,4.9,9.8c0.2,0.5,0.5,0.9,0.6,1.4c1,3.4,2.6,3.5,5.4,1.5
			c9.5-7,18.1-15.1,26-23.9C349,430.2,349.5,429.5,350.2,428.7z M355.9,476.2c-9.9,9-4.5,20-6.3,30.6c4.2-1.8,7.7-3,10.1-6.4
			c-3.9-1-3.9-1-3.8-4.4C355.9,489.7,355.9,483.2,355.9,476.2z"/>
		<path class="st11" d="M645.5,446.2c-12.6-0.1-23.7-0.2-34.8,0.7c-1.3,0.1-2.7,0.2-4,0.1c-6-0.8-6.8-1.7-6.8-7.8
			c0-6.2,0-12.3,0-18.5c0-2.2,0.3-3.2,3.1-3.1c26.3,1.6,52.6,0.6,78.9,0.8c16.7,0.1,33.3-0.3,50-0.4c1.5,0,3,0.2,4.5,0.3
			c3.7,0.4,5.3,2.2,5,6.2c-0.4,5.8-0.4,11.7,0,17.5c0.2,4.1-0.8,5.6-5.2,5.1c-12.3-1.4-24.6-0.8-37.8-0.9c4.4,4.6,9.2,7.3,14,10
			c9.6,5.3,20.2,7.6,30.5,10.9c4,1.2,5.1,2.6,2.2,6.3c-3.8,4.9-6,10.7-8.6,16.3c-1,2.3-0.6,5.9-4.9,5.8c-1.1,0-0.9,2-0.9,3.1
			c-0.2,9-0.3,18-0.4,27c0,2,0.8,2.8,2.7,2.3c0.5-0.1,1-0.2,1.5-0.3c6.5,0,8.3,1.7,8.3,8.1c0,5.5-0.1,11,0.1,16.5
			c0.1,3.3-0.9,4.3-4.3,4.1c-30.8-1.8-61.6-0.7-92.4-1c-12-0.1-24,0.2-35.9,0.8c-1.5,0.1-3,0.2-4.5,0.1c-6.6-0.4-7.6-1.5-7.6-8
			c0-5.8,0.1-11.7,0-17.5c-0.1-2.8,0.6-3.8,3.7-3.3c8.7,1.3,8.8,1.2,8.8-7.7c0-6.8,0-13.7,0-20.5c0-2.1,0.1-4-2.7-4.4
			c-2.3-0.3-2.5-2.4-3-4.1c-2.1-6.9-4.7-13.5-8.9-19.4c-2.2-3-1-3.7,1.9-4.4c15.3-4.1,30.2-9.4,43.8-17.7
			C642.4,448.3,643.3,447.7,645.5,446.2z M668.5,548.1C668.5,548.1,668.5,548,668.5,548.1c19.3-0.1,38.6-0.1,58-0.1
			c6.5,0,6.5,0.1,6.5-6.5c0-8.2,0-8.4-8.1-8.3c-3.4,0-4.2-1.1-4.1-4.3c0.2-10-0.2-20,0.2-30c0.2-4.6-1.1-5.6-5.6-5.5
			c-31.8,0.2-63.6,0.2-95.4,0.1c-3.3,0-4.3,0.9-4.2,4.1c0.2,10.5,0,21,0.1,31.5c0,2.4-0.1,4-3.3,4.1c-9.5,0.3-9.5,0.5-9.4,10.1
			c0,0.3,0,0.7,0,1c-0.4,3.1,0.8,3.9,3.9,3.8C627.5,548,648,548.1,668.5,548.1z M659.2,461c0,7.6,0.1,14.1-0.1,20.5
			c-0.1,2.9,0.7,4.3,3.9,4.1c3.3-0.2,6.7-0.2,10,0c3.1,0.2,4-0.9,4-4c-0.2-10.2-0.1-20.3,0-30.5c0-4.8,7.8-12.6,12.6-12.6
			c10.2,0,20.3,0.1,30.5,0.2c12.6,0.2,12.5,0.2,12-12.6c-0.1-2.8-1.2-3.3-3.6-3.2c-28.9,1.5-57.9,0.4-86.9,0.7c-8,0.1-16,0.3-24-0.1
			c-12.8-0.7-12.6-0.9-12.6,11.5c0,3.5,1.1,4,4.3,3.9c16-0.3,32-0.4,47.9-0.5c1.6,0,3.2-0.4,5.2,0.8c-17,16.7-38,24.9-59.9,31.6
			c1.9,4.3,4,8.1,5.3,12.1c1.1,3.6,2.4,4.2,5.9,2.9C629.7,480.2,644.6,472.3,659.2,461z M734,470.6c0.1-0.6,0.1-0.6-3.2-1.5
			c-10.9-3.1-21.3-7.4-30.8-13.6c-9.4-6.1-9.3-6.1-17.4,1.6c-0.1,0.1-0.2,0.2-0.4,0.3c-1.9,1.3-1.5,2.3,0.1,3.7
			c12.4,10.5,26.1,18.8,41.4,24.3c1.2,0.4,2.6,1.5,3.4-0.3C729.4,480.5,731.5,475.9,734,470.6z M713.6,488.1c-6.5-3.8-11.7-7-17-10
			c-3.3-1.9-7.7-6.8-9.3-5.4c-2.9,2.3-0.7,7.7-1.1,11.7c-0.3,2.8,0.8,3.8,3.7,3.8C697.3,488,704.8,488.1,713.6,488.1z M634.9,487.3
			c0,0.3,0.1,0.5,0.1,0.8c3.1,0,6.3,0,9.4,0c9.9,0,10,0,9.3-10.1c0-0.2-0.4-0.4-0.7-0.6C647.1,480.7,641,484,634.9,487.3z"/>
		<path class="st3" d="M582.4,518.5c0.2,12-1.1,24,0.6,35.9c0.5,3.2-0.8,4-3.8,4c-7.3-0.1-14.6,0.1-22,0.3c-2.3,0.1-3.4-1-4-2.9
			c-1-3.3-3.2-4-6.4-3.9c-14.5,0.2-29,0.1-43.5,0c-2.4,0-4.4,0.1-4,3.3c0.3,2.5-1.1,3.1-3.3,3.1c-8,0.1-16,0.3-24,0.3
			c-2.7,0-6-4.4-5.8-7.5c1.5-21.8,0.4-43.6,0.7-65.4c0-3.1-2.5-7.2-0.1-8.9c1.9-1.4,6,0.1,9.1,0.1c9.2,0.1,18.3,0,27.5,0.2
			c2.9,0.1,3.6-0.9,3.7-3.7c0.2-9.5,0.3-9.6-9.3-9.5c-12.1,0.2-24.3-0.5-36.4,0.7c-6,0.6-8.2-1.9-8.2-7.7c0-6.3,0.2-12.7-0.1-19
			c-0.1-3.5,1.2-4.3,4.3-3.9c15.1,1.9,30.3,0.6,45.4,1.1c3.2,0.1,4.5-0.7,4.2-4.1c-0.3-4.1,0-8.3-0.9-12.4c-0.6-2.6,0-4,3.2-3.8
			c9.5,0.7,18.9,1.1,28.4,1.5c3.1,0.1,3.6,1.6,3.1,4.2c-0.9,4.6-2.7,10.4-0.1,13.5c2.7,3.2,8.8,1,13.3,1c10.8,0,21.6,0.4,32.4-0.7
			c7.3-0.8,9.4,1.4,9.4,8.6c0,6.3-0.1,12.7,0.1,19c0.1,2.8-1,3.3-3.5,3c-16.4-1.9-32.9-0.5-49.4-0.9c-2.1-0.1-2.8,0.7-3,2.9
			c-0.9,10.3-1,10.3,9,10.3c8.3,0,16.7-0.1,25-0.3c7.9-0.1,8.7,1.2,8.4,8.8C582,496.5,582.4,507.5,582.4,518.5z M472,516
			C472,516,472,516,472,516c0,10.3,0.1,20.7-0.1,31c-0.1,3.1,0.8,4.2,3.9,4c3.5-0.2,7-0.2,10.5,0c2.7,0.1,4.2-0.5,3.8-3.5
			c-0.3-2.3,1.1-2.7,3.1-2.7c19.7,0,39.3,0,59,0c1.3,0,3.2-0.3,3,1.6c-0.4,5.6,3.4,4.5,6.6,4.5c2.5,0,5-0.2,7.5,0
			c3.2,0.3,3.9-1,3.8-4c-0.1-20.2-0.2-40.3,0-60.5c0-4-1.2-4.6-4.8-4.5c-11.2,0.3-22.3,0-33.5,0.1c-2.9,0-4.2-0.6-4.1-3.8
			c0.2-6.2,0.2-12.3,0-18.5c-0.1-3.2,1.1-3.9,4.1-3.9c13.2,0.2,26.3,0.3,39.5,0.1c3.9-0.1,9.1,2.7,11.3-0.3
			c1.9-2.6,0.4-7.7,0.7-11.7c0.3-3.6-1-4.4-4.5-4.3c-15.5,0.3-31,0.1-46.5,0.4c-4,0.1-4.9-1.3-4.6-4.9c0.3-4,0.1-8,0.3-12
			c0.1-2.5-0.5-3.7-3.3-3.5c-4.2,0.2-8.3,0.2-12.5,0c-2.8-0.1-3.4,1.1-3.2,3.6c0.2,4-0.1,8,0.2,12c0.3,3.6-0.6,5-4.6,4.9
			c-12.3-0.3-24.7,0-37-0.1c-13.1-0.1-13-0.2-12.4,13.2c0.1,2.9,1.1,3.7,3.9,3.5c15.3-1.5,30.6-0.4,45.9-0.8
			c3.4-0.1,4.2,1.1,4.1,4.3c-0.2,6-0.2,12,0,18c0.1,3.1-0.9,4-4,3.9c-10.7-0.2-21.3,0.1-32-0.2c-3.2-0.1-4.3,0.6-4.3,4
			C472.2,496,472,506,472,516z"/>
		<path class="st12" d="M583.9,374.8c-0.2,0.1-0.4,0.1-0.7,0.2c-36.1,0-72.1,0-108.2,0c-1.7,0-3.3-0.1-5-0.2
			c-24-39.4-3.3-89.3,41.6-100.1c41-9.9,81.2,21.7,81.5,63.8C593.3,351.5,589.7,363.4,583.9,374.8z"/>
		<path class="st2" d="M435.8,825.1c-4.3,0-8.7-0.1-13,0c-2.2,0.1-2.9-0.7-2.9-2.9c0.1-8.2,0-16.3,0-24.5c0-1.3-0.2-2.8,1.8-2.8
			c9.8,0.2,19.7-1,29.4,0.6c9.4,1.5,13.4,7,12.7,15.9c-0.6,7.7-6.1,12.9-14.7,13.4C444.8,825.3,440.3,825,435.8,825.1
			C435.8,825,435.8,825.1,435.8,825.1z M448.9,812.2C448.9,812.2,448.9,812.2,448.9,812.2c2.2,0,4.3-0.1,6.5-0.2
			c1.2-0.1,2.4-0.4,2.5-1.8c0.1-1.6-1.4-1.8-2.4-1.9c-4.5-0.2-9-0.2-13.5-0.2c-1.2,0-1.8,0.5-1.8,1.8c0,1.3,0.1,2.4,1.8,2.4
			C444.2,812.2,446.5,812.2,448.9,812.2z"/>
		<path class="st2" d="M328.4,829c0.1,6.2-0.1,12.3-1.7,18.3c-4.1,15.5-16.5,23.5-33.5,21.4c-15.9-2-24.4-9.6-27.6-25.6
			c-2.3-11.3-2.1-22.5,2.3-33.3c3-7.2,8.2-12,15.6-14.4c8.3-2.6,16.8-2.7,25,0c13.2,4.3,17.7,15,19.4,27.6
			C328.2,825,328.2,827,328.4,829z M322.2,830.5c-0.1-1.5,0-4.4-0.4-7.2c-1.4-11.9-6.8-16.6-18.8-16.6c-1,0-2,0-3,0
			c-8.1,0.4-12.1,3.7-14.2,11.5c-2.2,8.2-2,16.5,0.1,24.6c2.4,9.2,8.6,13.3,19.2,12.9c9.7-0.3,14-4,16.2-13.6
			C322.2,838.8,322.1,835.3,322.2,830.5z"/>
		<path class="st2" d="M741.2,847.6c6.6-14.1,13.3-28.2,20.3-43c5.8,12.5,11.3,24.3,16.7,36.1c3.4,7.4,3.3,7.4-4.6,7.4
			c-10.3,0-20.6,0-30.9,0C742.2,848.1,741.9,847.9,741.2,847.6z"/>
		<path class="st4" d="M912.7,778.9c1.5,0.6,3.3,1.4,3,3.3c-0.2,1.3-1.2,3.4-2.6,3.3c-1.9-0.2-2.7-2.3-3-4
			C909.9,780,911.2,779.2,912.7,778.9z"/>
		<path class="st13" d="M164.9,638.9c-1.5,2-0.9,3.9-0.9,5.6c-0.1,12.5-0.1,25,0,37.5c0,3.3-0.9,4.3-4.2,4.2c-11-0.2-22-0.2-33,0
			c-3.2,0.1-3.8-1.2-3.8-4.1c0.1-34.1,0.1-68.3,0-102.4c0-3.3,1.2-3.8,4.1-3.8c20.5,0.1,41,0,61.5,0.1c5.4,0,10.6,1.2,15.1,4.4
			c4.8,3.3,7.5,7.9,7.4,13.9c0,6.5-0.4,13,0.1,19.5c0.5,6.3-2.5,10.1-7.5,12.8c-3.2,1.8-6.6,3.1-10.3,3.5c-0.8,0.1-1.8,0-2,1.1
			c-0.1,1,0.8,1.3,1.5,1.7c0.6,0.3,1.2,0.6,1.9,0.7c8.7,1.3,11.4,7,12.4,15c1.5,11.5,4,22.9,6.3,34.3c0.6,2.9-0.2,3.4-2.8,3.4
			c-11.2-0.1-22.3-0.1-33.5,0c-2.7,0-3.7-0.9-4.1-3.6c-1.9-12.8-4-25.6-6.2-38.4C166.5,642.5,166.6,640.6,164.9,638.9z"/>
		<path class="st10" d="M469.2,638.5c0,2.9,0,4.9,0,7c0,12.2-0.1,24.3,0.1,36.5c0,3.2-0.9,4.3-4.2,4.2c-11-0.2-22-0.1-33,0
			c-2.8,0-3.8-0.8-3.8-3.7c0.1-34.3,0.1-68.7,0-103c0-3,1.2-3.6,3.8-3.6c20.8,0.1,41.7,0,62.5,0.1c6.3,0,12.1,1.8,16.8,6.4
			c3.1,3.1,4.8,6.7,4.8,11.1c-0.1,7-0.4,14,0.1,21c0.4,5.7-2.4,9.1-6.9,11.6c-3.2,1.8-6.6,3.2-10.2,3.7c-1,0.1-2.2,0.1-2.1,1.5
			c0,0.9,0.9,1.3,1.7,1.5c0.2,0,0.3,0.1,0.5,0.1c9.4,1.5,12.4,7.6,13.4,16.5c1.3,11,3.9,21.9,6.1,32.8c0.6,3-0.4,3.7-3.3,3.7
			c-11-0.1-22-0.2-33,0.1c-3.8,0.1-3.9-2.3-4.3-4.7c-2.1-12.8-4.2-25.6-6.2-38.4C471.8,641.8,472,640.1,469.2,638.5z M469,616.3
			c0,2.7,0.1,5.3,0,8c-0.1,2.2,0.8,2.9,2.9,2.8c2.1,0,3.5-0.2,3.4-2.9c-0.1-5-0.2-9.9,0-14.9c0.1-2.7-1-3.4-3.5-3.4
			c-2.7,0-2.9,1.4-2.8,3.4C469.1,611.6,469,613.9,469,616.3z"/>
		<path class="st10" d="M531.8,630.4c0-10.8,0-21.7,0-32.5c0-12.2,8.2-21.4,20.5-21.7c15.1-0.4,30.3-0.4,45.5,0
			c10.8,0.3,21.5,5.9,21.1,22.4c-0.6,21.8-0.1,43.6-0.1,65.4c0,14-7.4,21.8-21.4,22.1c-14.7,0.2-29.3,0.2-44,0
			c-12-0.2-21.5-10.2-21.5-22.2C531.8,652.7,531.8,641.5,531.8,630.4z M578.1,631.3c0-7.2,0-14.3,0-21.5c0-2.3,0.2-4.2-3.2-4.2
			c-3.1,0.1-2.9,1.9-2.9,3.9c0,14.5,0,28.9,0,43.4c0,2.1-0.2,3.9,2.9,3.9c3.4,0,3.2-1.9,3.2-4.2
			C578.1,645.6,578.1,638.4,578.1,631.3z"/>
		<path class="st14" d="M820.6,623.8c0,13.7,0,27.3,0,41c0,13.1-7.3,21-20.6,21.3c-14.8,0.3-29.7,0.3-44.5,0.1
			c-11.8-0.2-21.7-10.6-21.7-22.2c0-27.7,0.1-55.3-0.1-83c0-3.8,0.8-5.1,4.9-5c10.2,0.3,20.3,0.3,30.5,0c3.8-0.1,5,0.8,5,4.8
			c-0.2,23.8-0.1,47.6,0,71.5c0,1.6-1.4,4.2,2,4.6c2.8,0.3,4.2-0.4,4.1-3.7c-0.2-10.7-0.1-21.3-0.1-32c0-13.7,0.1-27.3-0.1-41
			c0-3.1,0.6-4.3,4.1-4.3c10.8,0.2,21.7,0.2,32.5,0c3.6-0.1,4,1.4,4,4.4C820.5,594.8,820.6,609.3,820.6,623.8z"/>
		<path class="st10" d="M226.3,631c0-16.7,0.1-33.3-0.1-50c0-3.7,0.7-5.2,4.9-5.1c25.8,0.2,51.7,0.2,77.5,0c3.8,0,4.8,1,4.7,4.8
			c-0.2,12.2-0.2,24.3,0,36.5c0,2.9-0.7,4.1-3.9,4.1c-10.8-0.2-21.7-0.2-32.5,0c-3.5,0.1-4.3-1.3-4.1-4.4c0.2-2.7-0.1-5.3,0.1-8
			c0.1-2.4-0.9-3.2-3.2-3.2c-2.3,0-2.8,1.2-2.7,3.1c0.1,5.2,0.2,10.3,0,15.5c-0.2,3.2,1.1,3.9,4,3.9c9.3-0.2,18.7,0,28-0.1
			c2.3,0,4.2-0.1,4.1,3.3c-0.1,3.4-2.4,2.6-4.2,2.6c-9.3,0-18.7,0.1-28,0c-3.1-0.1-4.1,0.8-4,3.9c0.2,5.2,0.1,10.3,0.1,15.5
			c0,2,0.1,3.5,2.8,3.6c2.9,0,3.3-1.5,3.2-3.7c0-0.3,0-0.7,0-1C273,641,273,641,283.9,641c8.5,0,17,0.1,25.5,0
			c2.7,0,3.8,0.6,3.8,3.6c-0.1,12.7-0.1,25.3,0,38c0,2.9-1,3.7-3.7,3.7c-26.5-0.1-53-0.1-79.5,0c-3.4,0-3.7-1.5-3.7-4.2
			C226.3,665,226.3,648,226.3,631z"/>
		<path class="st14" d="M632.8,630.3c0-11,0-22,0-33c0-11.9,8-20.8,19.9-21.1c15.3-0.4,30.6-0.5,45.9,0.1c14.3,0.5,20.9,8,20.9,22.3
			c0,8.2-0.1,16.3,0.1,24.5c0.1,2.9-0.5,4.1-3.8,4.1c-11-0.2-22-0.2-33,0c-3.2,0.1-3.9-1.1-3.8-4c0.2-4.7,0-9.3,0.1-14
			c0.1-2.3-0.5-3.3-3-3.3c-2.3,0-3.2,0.6-3.2,3.1c0.1,15,0.1,30,0,45c0,2.5,0.9,3,3.2,3.1c2.6,0,3-1.2,3-3.4
			c-0.1-5.3,0.1-10.7-0.1-16c-0.1-2.6,0.8-3.5,3.4-3.5c11.2,0.1,22.3,0.1,33.5,0c2.9,0,3.7,1.1,3.7,3.8c-0.1,9.7,0.2,19.3-0.1,29
			c-0.3,10.8-7.4,18.6-18.6,19c-16.3,0.6-32.6,0.6-48.9,0.1c-10.1-0.3-18.9-10.2-19.1-20.2c0-0.3,0-0.7,0-1
			C632.8,653.2,632.8,641.7,632.8,630.3z"/>
		<path class="st14" d="M870,576c9.3,0,18.7,0,28,0c2.8,0,5.6,0.2,8.4,0.8c10.4,2.2,15.8,8,16.1,18.6c0.3,14,0.3,28,0,42
			c-0.2,10.9-9.6,19.3-21.3,19.6c-7.3,0.2-14.7,0.2-22,0c-2.8-0.1-3.8,0.8-3.7,3.7c0.2,7.2,0,14.3,0.1,21.5c0.1,2.8-0.5,4.2-3.8,4.1
			c-11.2-0.2-22.3-0.2-33.5,0c-2.9,0-3.6-1-3.6-3.8c0.1-34.3,0.1-68.7,0-103c0-3,1-3.6,3.7-3.5C849,576.1,859.5,576,870,576z
			 M882,616.8c0-2.7-0.1-5.3,0-8c0.2-2.6-1-3-3.2-3c-2.3,0-3.3,0.7-3.2,3.1c0.1,5,0.1,10,0,15c-0.1,2.5,0.7,3.5,3.4,3.6
			c3,0.1,3.2-1.4,3.1-3.7C881.9,621.4,882,619.1,882,616.8z"/>
		<path class="st10" d="M371,576c13,0,26,0.1,39-0.1c3.2,0,4.3,0.8,4.2,4.2c-0.2,12.3-0.2,24.6,0,37c0,3.3-1.1,4.4-4.3,4.2
			c-4-0.3-8.9,1.2-11.7-0.6c-3.1-2.1-0.9-7.3-1.2-11.2c-0.1-2.2-0.2-3.8-3.2-3.7c-3.1,0-2.9,1.9-2.9,3.9c0,23.8-0.1,47.6,0.1,71.4
			c0,4.1-1,5.4-5.2,5.2c-10.3-0.3-20.6-0.3-31,0c-3.8,0.1-4.7-1.2-4.7-4.8c0.2-23.3,0.1-46.6,0.1-69.9c0-1.3,0-2.7-0.1-4
			c-0.2-1.9-1.6-1.8-3-1.8c-1.3,0-2.3,0.3-2.4,1.8c-0.1,0.7,0,1.3-0.1,2c-0.4,3.7,1.8,9.5-1,10.8c-4,1.9-9.4,0.7-14.2,0.8
			c-2.2,0-2.2-1.6-2.2-3.1c0-13,0.1-26-0.1-39c0-3.6,2.2-3,4.3-3C344.7,576,357.9,576,371,576z"/>
		<path class="st7" d="M219.6,632.8c0,11.6,0,22.2,0,32.7c-2.9-8.2-2.9-17-5.7-25.3C212.8,637,217.5,636.1,219.6,632.8z"/>
		<path class="st7" d="M524.8,634c0,10.2,0,20.3,0,31.3c-2.5-8.7-2.8-17-5.6-24.9C518,636.8,523.2,636.6,524.8,634z"/>
		<path class="st13" d="M384.9,503c12.9,0,25.2,0.2,37.5-0.1c5-0.1,7,3.9,10,6.4c1.4,1.2-0.6,2.3-1.4,3.2
			c-4.9,5.4-10.2,10.5-16.1,14.9c-1.3,1-2.9,1.6-3.7,3.7c9.1,2.3,18.3,3.1,27.6,3.6c3.4,0.2,4.4,0.8,2.9,4.1c-1,2.2-2.1,4.7-2.3,7.1
			c-0.4,5.1-3.3,5.6-7.5,5c-11.8-1.5-23.3-3.8-34.1-8.8c-3.2-1.5-5.9-1.4-9-0.1c-9.7,4.1-19.8,6.8-30.1,8.8c-3.5,0.7-5.9,0.5-7-3.8
			c-0.8-3.3-2.7-6.3-4.3-9.7c10.7-0.5,20.5-2.6,30.7-5.7c-3.6-3.8-7-7.4-10.3-11c-1-1-1.9-1.1-3.1-0.4c-0.6,0.3-1.2,0.7-1.7,1
			c-8.9,5.1-8.7,5-14.4-3.4c-2.1-3.1-1.3-3.9,1.8-5.1c8.3-3.3,15.6-8.2,21.4-15c0.7-0.8,1.9-1.4,1.8-2.8c-0.3-0.2-0.5-0.5-0.7-0.5
			c-3.7-0.6-8.7,1.7-10.9-1.1c-1.8-2.3-0.5-7-0.5-10.6c0-4.2-0.4-8.4,0.1-12.5c0.8-6.5-1.6-11.2-6.7-14.9c-1.9-1.4-3.5-3-5.4-4.4
			c-1.7-1.3-1.8-2.4-0.2-4c7.7-7.8,13.7-16.7,18.1-26.7c0.3-0.7,1.1-1.8,1.5-1.8c4.9,0.8,9.8,1.6,14.6,2.8c1.5,0.4,0.4,2-0.2,2.9
			c-2.3,3.7-0.2,4,2.9,4c16.6-0.3,33.3,0.6,49.9-0.7c3.3-0.3,4.3,0.6,4.3,4c0.1,10.7,0.2,11-10.7,10.5c-17.3-0.9-34.6-0.2-51.9-0.5
			c-3.6-0.1-8.7,3.9-9.3,7.4c-0.5,2.9,2,1.7,3,1.7c18.2,0.1,36.3,0.2,54.5-0.1c3.9-0.1,5.1,0.7,5,4.8c-0.3,11.8-0.3,23.7,0,35.5
			c0.1,3.4-1.1,3.9-4,3.8c-9-0.1-18,0.5-27-0.2C392.6,493.4,388.4,496.4,384.9,503z M395.6,468.8c5.1,0,10.3-0.1,15.4,0
			c4.3,0.1,3.1-2.9,3.2-5.2c0.1-2.3,0.5-4.7-3.3-4.6c-10.3,0.2-20.6,0.2-30.9,0c-4.4-0.1-2.9,3-3.1,5.2c-0.1,2.2-0.7,4.8,3.2,4.6
			C385.3,468.7,390.5,468.8,395.6,468.8z M395.5,475.9c-5.1,0-10.3,0.2-15.4-0.1c-4-0.2-3,2.6-3,4.7c0,2.1-1,4.8,3,4.8
			c10.3-0.1,20.6-0.2,30.8,0c4.2,0.1,3.3-2.6,3.4-5c0.1-2.4,0.3-4.7-3.4-4.5C405.8,476.1,400.6,475.9,395.5,475.9z M377.7,513.2
			c5,4.4,9.2,7.9,14.1,10.5c1.1,0.6,2.2,1.8,3.6,1.1c6.1-3.1,11.7-6.9,17.9-11.5C401,513.2,389.9,513.2,377.7,513.2z"/>
		<path class="st10" d="M323.8,496.3c-3,3.2-5.5,6-8.2,8.9c-2.2-5.7-4-10.8-6.1-15.8c-0.8-2,0.2-2.7,1.4-3.7
			c9.7-7.7,17.7-17.1,24.6-27.3c1.4-2.1,2.2-2.6,4.6-1c10.9,7.7,11,7.7,3,18.3c-2.3,3-3.2,5.9-3.1,9.6c0.5,20.9-0.7,41.9,0.7,62.8
			c0.2,2.2-0.6,2.9-2.8,2.9c-4.5-0.1-10,1.5-13.2-0.5c-3.6-2.2-0.8-8-0.9-12.2C323.7,524.6,323.8,510.8,323.8,496.3z"/>
		<path class="st13" d="M350.2,428.7c-0.7,0.9-1.2,1.5-1.7,2.1c-7.9,8.8-16.5,16.8-26,23.9c-2.7,2-4.4,1.9-5.4-1.5
			c-0.1-0.5-0.4-0.9-0.6-1.4c-1.4-3.5-5.9-6.6-4.9-9.8c0.8-2.7,5.5-4.3,8.5-6.4c5.4-3.9,10-8.7,14.4-13.8c1.7-2,3.1-2.6,5.3-0.8
			c2.6,2,5.5,3.7,8.2,5.6C348.8,427.2,349.4,427.9,350.2,428.7z"/>
		<path class="st7" d="M355.9,476.2c0,7,0,13.4,0,19.8c0,3.4-0.1,3.4,3.8,4.4c-2.4,3.4-5.9,4.6-10.1,6.4
			C351.4,496.3,345.9,485.3,355.9,476.2z"/>
		<path class="st14" d="M668.5,548.1c-20.5,0-41-0.1-61.5,0.1c-3.1,0-4.4-0.8-3.9-3.8c0-0.3,0-0.7,0-1c-0.1-9.6-0.1-9.8,9.4-10.1
			c3.2-0.1,3.3-1.7,3.3-4.1c-0.1-10.5,0.1-21-0.1-31.5c-0.1-3.3,0.9-4.1,4.2-4.1c31.8,0.1,63.6,0.1,95.4-0.1c4.5,0,5.8,0.9,5.6,5.5
			c-0.4,10,0,20-0.2,30c-0.1,3.2,0.7,4.3,4.1,4.3c8.1-0.1,8.1,0.1,8.1,8.3c0,6.6,0,6.5-6.5,6.5C707.2,548,687.8,548,668.5,548.1
			C668.5,548,668.5,548.1,668.5,548.1z M646,520.4c0-13,0-13-10.6-12.4c-0.2,0-0.3,0-0.5,0c-2.3-0.3-2.8,0.9-2.8,3
			c0.1,5.5,0.4,11-0.1,16.4c-0.5,5,1.4,6.1,6.1,5.9c7.9-0.4,7.9-0.1,7.9-7.8C646,523.8,646,522.1,646,520.4z M661,520.4
			c0,0.8,0,1.7,0,2.5c0,10.8,0,10.7,10.8,10.3c2.8-0.1,3.3-1.2,3.2-3.6c-0.1-5.1-0.4-10.3,0.1-15.4c0.5-5.3-1.4-6.6-6.5-6.4
			c-7.6,0.4-7.6,0.1-7.6,7.5C661,517.1,661,518.8,661,520.4z M690,520.2c0,3.3,0,6.7,0,10c0,1-0.5,2.7,1.2,2.8
			c3.8,0.2,7.6,0.1,11.5,0c1.7,0,1.4-1.5,1.4-2.6c0-6.5,0-13,0-19.5c0-2-0.5-2.8-2.8-3C690,507,690,507,690,518.2
			C690,518.9,690,519.5,690,520.2z"/>
		<path class="st14" d="M659.2,461c-14.6,11.2-29.5,19.2-45.5,25c-3.5,1.3-4.8,0.7-5.9-2.9c-1.2-4.1-3.4-7.9-5.3-12.1
			c21.9-6.7,42.9-14.9,59.9-31.6c-2-1.2-3.7-0.8-5.2-0.8c-16,0.1-32,0.2-47.9,0.5c-3.2,0.1-4.3-0.4-4.3-3.9
			c0-12.4-0.2-12.2,12.6-11.5c8,0.4,16,0.2,24,0.1c29-0.3,57.9,0.8,86.9-0.7c2.4-0.1,3.5,0.3,3.6,3.2c0.5,12.8,0.6,12.7-12,12.6
			c-10.2-0.1-20.3-0.2-30.5-0.2c-4.8,0-12.6,7.8-12.6,12.6c-0.1,10.2-0.1,20.3,0,30.5c0.1,3.1-0.9,4.2-4,4c-3.3-0.2-6.7-0.2-10,0
			c-3.2,0.2-3.9-1.1-3.9-4.1C659.3,475.1,659.2,468.7,659.2,461z"/>
		<path class="st14" d="M734,470.6c-2.5,5.3-4.6,10-6.9,14.6c-0.9,1.8-2.3,0.7-3.4,0.3c-15.3-5.5-29-13.8-41.4-24.3
			c-1.6-1.4-2-2.4-0.1-3.7c0.1-0.1,0.3-0.2,0.4-0.3c8.1-7.8,8.1-7.7,17.4-1.6c9.5,6.2,19.9,10.5,30.8,13.6
			C734.1,470,734.1,470,734,470.6z"/>
		<path class="st7" d="M713.6,488.1c-8.8,0-16.3-0.1-23.8,0.1c-2.9,0.1-4-1-3.7-3.8c0.4-4-1.8-9.3,1.1-11.7c1.6-1.3,6,3.6,9.3,5.4
			C701.9,481.2,707.1,484.3,713.6,488.1z"/>
		<path class="st7" d="M634.9,487.3c6.1-3.3,12.2-6.6,18.2-9.9c0.3,0.3,0.7,0.4,0.7,0.6c0.6,10.1,0.6,10.1-9.3,10.1
			c-3.1,0-6.3,0-9.4,0C635,487.9,635,487.6,634.9,487.3z"/>
		<path class="st13" d="M472,516c0-10,0.2-20-0.1-30c-0.1-3.5,1.1-4.1,4.3-4c10.7,0.2,21.3,0,32,0.2c3.1,0,4.1-0.8,4-3.9
			c-0.2-6-0.2-12,0-18c0.1-3.2-0.7-4.4-4.1-4.3c-15.3,0.4-30.7-0.6-45.9,0.8c-2.8,0.3-3.7-0.6-3.9-3.5c-0.7-13.4-0.8-13.3,12.4-13.2
			c12.3,0.1,24.7-0.1,37,0.1c4,0.1,4.8-1.3,4.6-4.9c-0.3-4,0-8-0.2-12c-0.1-2.5,0.5-3.7,3.2-3.6c4.2,0.2,8.3,0.2,12.5,0
			c2.8-0.1,3.4,1,3.3,3.5c-0.2,4,0,8-0.3,12c-0.3,3.6,0.6,5,4.6,4.9c15.5-0.3,31-0.1,46.5-0.4c3.5-0.1,4.8,0.8,4.5,4.3
			c-0.3,4,1.2,9-0.7,11.7c-2.2,3-7.4,0.2-11.3,0.3c-13.2,0.2-26.3,0.1-39.5-0.1c-2.9,0-4.2,0.7-4.1,3.9c0.2,6.2,0.2,12.3,0,18.5
			c-0.1,3.3,1.2,3.9,4.1,3.8c11.2-0.1,22.3,0.1,33.5-0.1c3.6-0.1,4.8,0.5,4.8,4.5c-0.2,20.2-0.1,40.3,0,60.5c0,3-0.7,4.3-3.8,4
			c-2.5-0.2-5,0-7.5,0c-3.2,0-7,1-6.6-4.5c0.1-1.9-1.8-1.6-3-1.6c-19.7,0-39.3,0-59,0c-1.9,0-3.4,0.4-3.1,2.7c0.4,3-1.1,3.7-3.8,3.5
			c-3.5-0.2-7-0.2-10.5,0c-3.1,0.2-3.9-0.8-3.9-4C472.1,536.7,472,526.3,472,516C472,516,472,516,472,516z M525,493.2
			c-8.6,0-15.6-0.2-22.6,0c-9.7,0.3-18,6.9-20.3,15.6c-2.4,9.2,1.3,19,9.1,24c8,5.1,18.5,4.3,26-2c6.1-5.2,6.1-5.2,12.6,0.2
			c7.2,6,16.9,6.8,25.1,2.1c7.6-4.4,11.6-13.4,10.1-22.7c-1.4-8.3-8.1-14.9-17.1-16.6C539.7,492.3,531.5,493.6,525,493.2z"/>
		<path class="st0" d="M448.9,812.2c-2.3,0-4.7,0-7,0c-1.6,0-1.8-1.1-1.8-2.4c0-1.3,0.7-1.8,1.8-1.8c4.5,0.1,9,0.1,13.5,0.2
			c1.1,0,2.5,0.3,2.4,1.9c-0.1,1.5-1.3,1.8-2.5,1.8C453.2,812.1,451,812.2,448.9,812.2C448.9,812.2,448.9,812.2,448.9,812.2z"/>
		<path class="st0" d="M322.2,830.5c-0.1,4.8,0,8.3-0.8,11.7c-2.2,9.6-6.6,13.3-16.2,13.6c-10.6,0.4-16.8-3.7-19.2-12.9
			c-2.1-8.2-2.3-16.4-0.1-24.6c2-7.8,6.1-11,14.2-11.5c1-0.1,2,0,3,0c12,0,17.4,4.6,18.8,16.6C322.2,826.2,322.2,829,322.2,830.5z
			 M308.6,848.1c6.4,0.1,8.1-0.8,9.1-6c1.2-6.4,1.3-12.8-0.3-19.2c-1.4-5.6-4.2-7.3-10.8-6.8c-5.8,0.4-7.8,2.4-8.6,8.2
			c-0.7,4.8-0.5,9.5,0,14.3C298.9,846,301.1,848,308.6,848.1z"/>
		<path class="st1" d="M469,616.3c0-2.3,0.1-4.6,0-7c-0.1-2,0.1-3.5,2.8-3.4c2.5,0,3.6,0.7,3.5,3.4c-0.2,5-0.1,9.9,0,14.9
			c0.1,2.7-1.3,2.9-3.4,2.9c-2.1,0-3-0.6-2.9-2.8C469.1,621.6,469,618.9,469,616.3z"/>
		<path class="st1" d="M578.1,631.3c0,7.2,0,14.3,0,21.5c0,2.3,0.2,4.2-3.2,4.2c-3.1,0-2.9-1.8-2.9-3.9c0-14.5,0-28.9,0-43.4
			c0-2.1-0.2-3.9,2.9-3.9c3.4-0.1,3.2,1.9,3.2,4.2C578.1,617,578.1,624.1,578.1,631.3z"/>
		<path class="st1" d="M882,616.8c0,2.3-0.1,4.7,0,7c0.1,2.3-0.1,3.8-3.1,3.7c-2.7-0.1-3.4-1.1-3.4-3.6c0.1-5,0.1-10,0-15
			c-0.1-2.4,0.9-3.1,3.2-3.1c2.2,0,3.4,0.4,3.2,3C881.8,611.5,882,614.1,882,616.8z"/>
		<path class="st11" d="M395.6,468.8c-5.1,0-10.3-0.2-15.4,0.1c-3.9,0.2-3.3-2.4-3.2-4.6c0.1-2.2-1.3-5.2,3.1-5.2
			c10.3,0.2,20.6,0.2,30.9,0c3.8-0.1,3.4,2.3,3.3,4.6c-0.1,2.2,1.1,5.3-3.2,5.2C405.9,468.7,400.8,468.8,395.6,468.8z"/>
		<path class="st1" d="M395.5,475.9c5.1,0,10.3,0.2,15.4-0.1c3.7-0.2,3.4,2.1,3.4,4.5c-0.1,2.4,0.8,5.1-3.4,5
			c-10.3-0.2-20.6-0.2-30.8,0c-4,0.1-3-2.7-3-4.8c0-2.1-1-4.8,3-4.7C385.2,476.1,390.4,475.9,395.5,475.9z"/>
		<path class="st11" d="M377.7,513.2c12.2,0,23.3,0,35.7,0c-6.2,4.7-11.9,8.4-17.9,11.5c-1.5,0.8-2.5-0.5-3.6-1.1
			C386.9,521.1,382.7,517.5,377.7,513.2z"/>
		<path class="st11" d="M646,520.4c0,1.7,0,3.3,0,5c0,7.7,0,7.5-7.9,7.8c-4.6,0.2-6.5-0.8-6.1-5.9c0.5-5.4,0.2-10.9,0.1-16.4
			c0-2,0.5-3.2,2.8-3c0.2,0,0.3,0,0.5,0C646,507.4,646,507.4,646,520.4z"/>
		<path class="st1" d="M661,520.4c0-1.7,0-3.3,0-5c0-7.4,0-7.1,7.6-7.5c5.1-0.3,7,1,6.5,6.4c-0.5,5.1-0.2,10.3-0.1,15.4
			c0.1,2.4-0.4,3.5-3.2,3.6c-10.8,0.4-10.8,0.5-10.8-10.3C661,522.1,661,521.2,661,520.4z"/>
		<path class="st1" d="M690,520.2c0-0.7,0-1.3,0-2c0-11.2,0-11.2,11.4-10.3c2.2,0.2,2.8,0.9,2.8,3c-0.1,6.5,0,13,0,19.5
			c0,1.1,0.3,2.6-1.4,2.6c-3.8,0.1-7.6,0.1-11.5,0c-1.7-0.1-1.2-1.7-1.2-2.8C690,526.9,690,523.5,690,520.2z"/>
		<path class="st15" d="M525,493.2c6.5,0.5,14.7-0.9,22.8,0.6c9,1.7,15.7,8.3,17.1,16.6c1.6,9.3-2.4,18.3-10.1,22.7
			c-8.2,4.7-17.9,3.9-25.1-2.1c-6.4-5.4-6.4-5.4-12.6-0.2c-7.5,6.3-18,7.1-26,2c-7.8-5-11.5-14.8-9.1-24
			c2.3-8.7,10.7-15.3,20.3-15.6C509.4,493,516.4,493.2,525,493.2z M486,514.5c0,6.8,4,13.1,10.3,15.6c7,2.9,13.3,1.5,18.8-3.8
			c6.1-5.9,10.1-6,16.2-0.1c0.5,0.5,0.9,1,1.4,1.4c5.8,4.8,14.1,5.3,20.4,1.1c6.1-4,8.9-12.1,6.7-19.4c-2-6.7-8.4-11.3-15.9-11.3
			c-13.8-0.1-27.6-0.1-41.5,0C493.2,498.1,486.1,505.3,486,514.5z"/>
		<path class="st6" d="M308.6,848.1c-7.5-0.1-9.8-2.1-10.6-9.5c-0.5-4.8-0.8-9.5,0-14.3c0.9-5.8,2.8-7.8,8.6-8.2
			c6.6-0.4,9.4,1.2,10.8,6.8c1.6,6.3,1.4,12.8,0.3,19.2C316.7,847.2,315.1,848.1,308.6,848.1z"/>
		<path class="st4" d="M486,514.5c0.1-9.2,7.1-16.4,16.4-16.5c13.8-0.1,27.6-0.1,41.5,0c7.5,0,13.9,4.6,15.9,11.3
			c2.2,7.3-0.6,15.4-6.7,19.4c-6.4,4.2-14.6,3.7-20.4-1.1c-0.5-0.4-1-0.9-1.4-1.4c-6.1-5.8-10.1-5.8-16.2,0.1
			c-5.5,5.3-11.7,6.7-18.8,3.8C490,527.6,486,521.4,486,514.5z M512.1,514.6c-0.3-1.9-1.9-2.1-3.4-1.9c-3,0.3-4.9-0.4-4.4-4
			c0.2-1.4,0.4-3.4-1.7-3.5c-2.3-0.1-2.6,1.8-2.4,3.5c0.3,2.9-0.5,4.4-3.8,4c-1.5-0.2-3.7-0.4-3.5,2.2c0.1,2,1.8,2.3,3.4,2.1
			c2.8-0.3,4.5,0.2,3.9,3.6c-0.3,1.7,0.1,3.6,2.4,3.6c2.2-0.1,1.9-2.1,1.7-3.5c-0.4-3.2,1-4.1,3.9-3.8
			C510,517.2,511.7,517,512.1,514.6z M544.2,510.8c1.9-0.3,3.2-1.5,3.2-3.3c0-1.9-1.3-3.2-3.2-3.1c-1.8,0-3.2,1.3-3.2,3.2
			C541,509.5,542.5,510.4,544.2,510.8z M537.9,517.1c1.7-0.3,3.1-1.3,3-3.2c-0.1-1.9-1.3-3-3.3-2.9c-1.7,0.1-2.7,1.1-2.8,2.9
			C534.8,515.8,535.9,516.8,537.9,517.1z M553.9,513.8c-0.6-1.3-1.1-3-3.2-2.9c-1.7,0-2.8,1-3,2.7c-0.2,1.9,0.7,3.2,2.7,3.4
			C552.4,517.2,553.2,515.7,553.9,513.8z M547.2,520.5c0-2-1-3.3-2.9-3.3c-1.8,0-3.2,1.2-3.2,3.1c0,1.6,1,2.8,2.7,3
			C545.8,523.4,546.9,522.4,547.2,520.5z"/>
		<path class="st15" d="M512.1,514.6c-0.4,2.4-2.1,2.6-3.8,2.4c-3-0.4-4.4,0.5-3.9,3.8c0.2,1.4,0.5,3.4-1.7,3.5
			c-2.3,0.1-2.6-1.9-2.4-3.6c0.5-3.4-1.1-3.9-3.9-3.6c-1.6,0.2-3.2-0.1-3.4-2.1c-0.2-2.6,2-2.4,3.5-2.2c3.3,0.4,4.1-1.1,3.8-4
			c-0.2-1.7,0.1-3.7,2.4-3.5c2.1,0.1,1.9,2.2,1.7,3.5c-0.5,3.6,1.3,4.3,4.4,4C510.2,512.5,511.8,512.7,512.1,514.6z"/>
		<path class="st1" d="M544.2,510.8c-1.7-0.4-3.2-1.3-3.2-3.2c0-1.9,1.3-3.1,3.2-3.2c1.9,0,3.2,1.2,3.2,3.1
			C547.3,509.4,546.1,510.5,544.2,510.8z"/>
		<path class="st15" d="M537.9,517.1c-2-0.3-3.1-1.3-3-3.3c0.1-1.8,1.1-2.8,2.8-2.9c2-0.1,3.2,1.1,3.3,2.9
			C541,515.8,539.6,516.7,537.9,517.1z"/>
		<path class="st15" d="M553.9,513.8c-0.6,1.9-1.5,3.3-3.5,3.2c-2-0.2-2.9-1.5-2.7-3.4c0.1-1.7,1.2-2.7,3-2.7
			C552.7,510.9,553.2,512.5,553.9,513.8z"/>
		<path class="st15" d="M547.2,520.5c-0.3,1.9-1.4,2.9-3.4,2.8c-1.7-0.1-2.8-1.4-2.7-3c0-1.9,1.4-3.1,3.2-3.1
			C546.2,517.2,547.2,518.5,547.2,520.5z"/>
	</g>
</g>
</svg>
